<?xml version="1.0" encoding="UTF-8" standalone="no"?>
<!-- Created with Inkscape (http://www.inkscape.org/) -->

<svg
   xmlns:dc="http://purl.org/dc/elements/1.1/"
   xmlns:cc="http://creativecommons.org/ns#"
   xmlns:rdf="http://www.w3.org/1999/02/22-rdf-syntax-ns#"
   xmlns:svg="http://www.w3.org/2000/svg"
   xmlns="http://www.w3.org/2000/svg"
   xmlns:xlink="http://www.w3.org/1999/xlink"
   xmlns:sodipodi="http://sodipodi.sourceforge.net/DTD/sodipodi-0.dtd"
   xmlns:inkscape="http://www.inkscape.org/namespaces/inkscape"
   width="48"
   height="48"
   id="svg2"
   version="1.1"
   inkscape:version="0.48.4 r9939"
   sodipodi:docname="artikulate.svg">
  <defs
     id="defs4">
    <linearGradient
       inkscape:collect="always"
       xlink:href="#linearGradient4029"
       id="linearGradient3771"
       x1="42"
       y1="42"
       x2="6"
       y2="6"
       gradientUnits="userSpaceOnUse"
       gradientTransform="matrix(-1,0,0,-1,48,1052.3622)"
       spreadMethod="pad" />
    <linearGradient
       id="linearGradient4029">
      <stop
         id="stop4031"
         offset="0"
         style="stop-color:#fb8c00;stop-opacity:1;" />
      <stop
         id="stop4033"
         offset="1"
         style="stop-color:#ef6c00;stop-opacity:1;" />
    </linearGradient>
  </defs>
  <sodipodi:namedview
     id="base"
     pagecolor="#ffffff"
     bordercolor="#666666"
     borderopacity="1.0"
     inkscape:pageopacity="0.0"
     inkscape:pageshadow="2"
     inkscape:zoom="11.313708"
     inkscape:cx="5.4367525"
     inkscape:cy="27.034598"
     inkscape:document-units="px"
     inkscape:current-layer="layer1"
     showgrid="true"
     inkscape:snap-bbox="true"
     inkscape:window-width="1301"
     inkscape:window-height="744"
     inkscape:window-x="65"
     inkscape:window-y="24"
     inkscape:window-maximized="1"
     inkscape:snap-global="true"
     showguides="true"
     inkscape:guide-bbox="true">
    <inkscape:grid
       type="xygrid"
       id="grid2985"
       empspacing="6"
       visible="true"
       enabled="true"
       snapvisiblegridlinesonly="true" />
    <sodipodi:guide
       orientation="1,0"
       position="12,34"
       id="guide3766" />
    <sodipodi:guide
       orientation="1,0"
       position="36,26"
       id="guide3768" />
    <sodipodi:guide
       orientation="0,1"
       position="22,36"
       id="guide3770" />
    <sodipodi:guide
       orientation="0,1"
       position="23,12"
       id="guide3772" />
  </sodipodi:namedview>
  <metadata
     id="metadata7">
    <rdf:RDF>
      <cc:Work
         rdf:about="">
        <dc:format>image/svg+xml</dc:format>
        <dc:type
           rdf:resource="http://purl.org/dc/dcmitype/StillImage" />
        <dc:title />
      </cc:Work>
    </rdf:RDF>
  </metadata>
  <g
     inkscape:label="Layer 1"
     inkscape:groupmode="layer"
     id="layer1"
     transform="translate(0,-1004.3622)">
    <path
       style="opacity:0.1;fill:#000000;fill-opacity:1;stroke:none"
       d="m 25,1052.3622 c 7.7742,0 15,-2 18,-5 3,-3 5,-10.2258 5,-18 0,-7.7742 -2,-15 -5,-18 -0.1285,-0.1285 -0.2938,-0.2503 -0.4375,-0.375 2.6917,3.2942 4.4375,10.0867 4.4375,17.375 0,7.7742 -2,15 -5,18 -3,3 -10.2258,5 -18,5 -7.2883,0 -14.0808,-1.7458 -17.375,-4.4375 0.1247,0.1437 0.2465,0.309 0.375,0.4375 3,3 10.2258,5 18,5 z"
       id="path3779"
       inkscape:connector-curvature="0"
       inkscape:transform-center-x="-2.3125"
       inkscape:transform-center-y="2.3125" />
    <path
       inkscape:transform-center-y="2.2828743"
       inkscape:transform-center-x="-2.2828593"
       inkscape:connector-curvature="0"
       id="path3781"
       d="m 24.764476,1051.8319 c 7.674553,0 14.807735,-1.9744 17.769282,-4.9359 2.961547,-2.9616 4.935912,-10.0947 4.935912,-17.7693 0,-7.6746 -1.974365,-14.8078 -4.935912,-17.7693 -0.126853,-0.1269 -0.290034,-0.2471 -0.431892,-0.3702 2.657199,3.2519 4.380621,9.9574 4.380621,17.1523 0,7.6745 -1.974364,14.8078 -4.935911,17.7693 -2.961547,2.9615 -10.094729,4.9359 -17.769282,4.9359 -7.194882,0 -13.9003179,-1.7235 -17.152294,-4.3806 0.1231016,0.1418 0.2433405,0.305 0.3701934,0.4319 2.961547,2.9615 10.0947286,4.9359 17.7692826,4.9359 z"
       style="opacity:0.2;fill:#000000;fill-opacity:1;stroke:none" />
    <path
       style="fill:url(#linearGradient3771);fill-opacity:1;stroke:none"
       d="m 24,1051.3622 c 7.774167,0 15,-2 18,-5 3,-3 5,-10.2258 5,-18 0,-7.7742 -2,-15 -5,-18 -3,-3 -10.2258,-5 -18,-5 -7.7742,0 -15,2 -18,5 -3,3 -5,10.2258 -5,18 0,7.7742 2,15 5,18 3,3 10.225833,5 18,5 z"
       id="path3770"
       inkscape:connector-curvature="0"
       sodipodi:nodetypes="zzzzzzzzz" />
    <path
       style="opacity:0.1;fill:#ffffff;fill-opacity:1;stroke:none"
       d="M 24,1 C 16.225833,1 9,3 6,6 3,9 1,16.2258 1,24 1,31.7742 3,39 6,42 6.128453,42.128453 6.2938409,42.250292 6.4375,42.375 3.7458496,39.080756 2,32.288313 2,25 2,17.2258 4,10 7,7 10,4 17.225833,2 25,2 32.288282,2 39.080753,3.7458496 42.375,6.4375 42.250292,6.2938409 42.128453,6.128453 42,6 39,3 31.774167,1 24,1 z"
       id="path3000"
       inkscape:connector-curvature="0"
       inkscape:transform-center-x="2.3125"
       inkscape:transform-center-y="-2.3125"
       transform="translate(0,1004.3622)" />
    <path
       inkscape:transform-center-y="2.3125"
       inkscape:transform-center-x="-2.3125"
       inkscape:connector-curvature="0"
       id="path3777"
       d="m 24,1051.3622 c 7.7742,0 15,-2 18,-5 3,-3 5,-10.2258 5,-18 0,-7.7742 -2,-15 -5,-18 -0.1285,-0.1285 -0.2938,-0.2503 -0.4375,-0.375 2.6917,3.2942 4.4375,10.0867 4.4375,17.375 0,7.7742 -2,15 -5,18 -3,3 -10.2258,5 -18,5 -7.2883,0 -14.0808,-1.7458 -17.375,-4.4375 0.1247,0.1437 0.2465,0.309 0.375,0.4375 3,3 10.2258,5 18,5 z"
       style="opacity:0.10000000000000001;fill:#000000;fill-opacity:1;stroke:none" />
    <g
       id="g3032"
       transform="translate(-6,1005.3622)" />
    <g
       id="g3042"
       transform="translate(-103.875,1000.6422)" />
    <g
       id="g3038"
       transform="translate(-107.998,1001.3622)" />
    <g
       id="g3030"
       transform="translate(-102.909,1002.8852)" />
    <path
       style="fill:#fffbef;fill-opacity:1;stroke:none"
       d="M 24 12 C 19.943896 12 16.158967 13.02855 14.59375 14.59375 C 13.028532 16.15895 12 19.9439 12 24 C 12 28.0561 13.028532 31.84105 14.59375 33.40625 C 16.158967 34.97145 19.943913 36 24 36 C 28.056087 36 31.841033 34.97145 33.40625 33.40625 C 33.915098 32.897408 34.338112 32.127711 34.71875 31.21875 C 36.492025 32.120483 38.557791 32.488442 41 32 C 38 31 36.157944 29.178879 36 24 C 36 19.9439 34.971468 16.15895 33.40625 14.59375 C 31.841033 13.02855 28.056104 12 24 12 z M 18 22 C 19.104569 22 20 22.895431 20 24 C 20 25.104569 19.104569 26 18 26 C 16.895431 26 16 25.104569 16 24 C 16 22.895431 16.895431 22 18 22 z M 24 22 C 25.104569 22 26 22.895431 26 24 C 26 25.104569 25.104569 26 24 26 C 22.895431 26 22 25.104569 22 24 C 22 22.895431 22.895431 22 24 22 z M 30 22 C 31.104569 22 32 22.895431 32 24 C 32 25.104569 31.104569 26 30 26 C 28.895431 26 28 25.104569 28 24 C 28 22.895431 28.895431 22 30 22 z "
       transform="translate(0,1004.3622)"
       id="path3002" />
    <path
       style="fill:#000000;fill-opacity:1;stroke:none;opacity:0.1"
       d="M 33.84375 15.15625 C 35.150795 16.947349 36 20.350514 36 24 C 36.111455 27.654536 37.052462 29.641915 38.65625 30.84375 C 37.67156 29.605971 37.085293 27.796729 37 25 C 37 20.9439 35.971468 17.15895 34.40625 15.59375 C 34.249341 15.436843 34.04331 15.301877 33.84375 15.15625 z M 34.71875 31.21875 C 34.338112 32.12765 33.915098 32.89735 33.40625 33.40625 C 31.841033 34.97145 28.056087 36 24 36 C 20.350526 36 16.947369 35.150777 15.15625 33.84375 C 15.301877 34.04331 15.436841 34.249343 15.59375 34.40625 C 17.158967 35.97145 20.943913 37 25 37 C 29.056087 37 32.841033 35.97145 34.40625 34.40625 C 34.915098 33.89735 35.338112 33.12765 35.71875 32.21875 C 37.492025 33.12045 39.557791 33.4884 42 33 C 41.3118 32.7706 40.684976 32.502693 40.125 32.15625 C 38.056737 32.407874 36.277788 32.011512 34.71875 31.21875 z "
       transform="translate(0,1004.3622)"
       id="path3776" />
    <path
       style="opacity:0.53877551;fill:#000000;fill-opacity:1;stroke:none"
       d="M 18 22 C 16.895431 22 16 22.895431 16 24 C 16 25.104569 16.895431 26 18 26 C 19.104569 26 20 25.104569 20 24 C 20 22.895431 19.104569 22 18 22 z M 24 22 C 22.895431 22 22 22.895431 22 24 C 22 25.104569 22.895431 26 24 26 C 25.104569 26 26 25.104569 26 24 C 26 22.895431 25.104569 22 24 22 z M 30 22 C 28.895431 22 28 22.895431 28 24 C 28 25.104569 28.895431 26 30 26 C 31.104569 26 32 25.104569 32 24 C 32 22.895431 31.104569 22 30 22 z "
       transform="translate(0,1004.3622)"
       id="path3782" />
  </g>
</svg>
