<?xml version="1.0" encoding="UTF-8" standalone="no"?>
<!-- Created with Inkscape (http://www.inkscape.org/) -->

<svg
   xmlns:dc="http://purl.org/dc/elements/1.1/"
   xmlns:cc="http://creativecommons.org/ns#"
   xmlns:rdf="http://www.w3.org/1999/02/22-rdf-syntax-ns#"
   xmlns:svg="http://www.w3.org/2000/svg"
   xmlns="http://www.w3.org/2000/svg"
   xmlns:xlink="http://www.w3.org/1999/xlink"
   xmlns:sodipodi="http://sodipodi.sourceforge.net/DTD/sodipodi-0.dtd"
   xmlns:inkscape="http://www.inkscape.org/namespaces/inkscape"
   width="48"
   height="48"
   id="svg2"
   version="1.1"
   inkscape:version="0.48.4 r9939"
   sodipodi:docname="gufw.svg">
  <sodipodi:namedview
     id="base"
     pagecolor="#ffffff"
     bordercolor="#666666"
     borderopacity="1.0"
     inkscape:pageopacity="0.0"
     inkscape:pageshadow="2"
     inkscape:zoom="15.999999"
     inkscape:cx="20.789319"
     inkscape:cy="25.040576"
     inkscape:document-units="px"
     inkscape:current-layer="layer1"
     showgrid="true"
     inkscape:snap-bbox="true"
     inkscape:window-width="1301"
     inkscape:window-height="744"
     inkscape:window-x="65"
     inkscape:window-y="24"
     inkscape:window-maximized="1"
     inkscape:snap-global="true">
    <inkscape:grid
       snapvisiblegridlinesonly="true"
       enabled="true"
       visible="true"
       empspacing="6"
       id="grid2985"
       type="xygrid" />
  </sodipodi:namedview>
  <defs
     id="defs4">
    <linearGradient
       id="linearGradient3765">
      <stop
         id="stop3767"
         offset="0"
         style="stop-color:#388e3c;stop-opacity:1;" />
      <stop
         id="stop3769"
         offset="1"
         style="stop-color:#2e7d32;stop-opacity:1;" />
    </linearGradient>
    <linearGradient
       gradientTransform="translate(0,1004.3622)"
       gradientUnits="userSpaceOnUse"
       y2="42"
       x2="42"
       y1="6"
       x1="6"
       id="linearGradient3771"
       xlink:href="#linearGradient3765"
       inkscape:collect="always" />
    <clipPath
       clipPathUnits="userSpaceOnUse"
       id="clipPath3844">
      <path
         style="fill:#ffab00;fill-opacity:1;stroke:none"
         d="m 24,12 -10,5 c 1.496509,13.228772 -2,13 10,19 12,-6 8.503491,-5.7712 10,-19 z"
         id="path3846"
         inkscape:connector-curvature="0"
         sodipodi:nodetypes="ccccc" />
    </clipPath>
  </defs>
  <metadata
     id="metadata7">
    <rdf:RDF>
      <cc:Work
         rdf:about="">
        <dc:format>image/svg+xml</dc:format>
        <dc:type
           rdf:resource="http://purl.org/dc/dcmitype/StillImage" />
        <dc:title />
      </cc:Work>
    </rdf:RDF>
  </metadata>
  <g
     transform="translate(0,-1004.3622)"
     id="layer1"
     inkscape:groupmode="layer"
     inkscape:label="Layer 1">
    <path
       inkscape:transform-center-y="2.3125"
       inkscape:transform-center-x="-2.3125"
       inkscape:connector-curvature="0"
       id="path3779"
       d="m 25,1052.3622 c 7.7742,0 15,-2 18,-5 3,-3 5,-10.2258 5,-18 0,-7.7742 -2,-15 -5,-18 -0.1285,-0.1285 -0.2938,-0.2503 -0.4375,-0.375 2.6917,3.2942 4.4375,10.0867 4.4375,17.375 0,7.7742 -2,15 -5,18 -3,3 -10.2258,5 -18,5 -7.2883,0 -14.0808,-1.7458 -17.375,-4.4375 0.1247,0.1437 0.2465,0.309 0.375,0.4375 3,3 10.2258,5 18,5 z"
       style="opacity:0.1;fill:#000000;fill-opacity:1;stroke:none" />
    <path
       style="opacity:0.2;fill:#000000;fill-opacity:1;stroke:none"
       d="m 24.764476,1051.8319 c 7.674553,0 14.807735,-1.9744 17.769282,-4.9359 2.961547,-2.9616 4.935912,-10.0947 4.935912,-17.7693 0,-7.6746 -1.974365,-14.8078 -4.935912,-17.7693 -0.126853,-0.1269 -0.290034,-0.2471 -0.431892,-0.3702 2.657199,3.2519 4.380621,9.9574 4.380621,17.1523 0,7.6745 -1.974364,14.8078 -4.935911,17.7693 -2.961547,2.9615 -10.094729,4.9359 -17.769282,4.9359 -7.194882,0 -13.9003179,-1.7235 -17.152294,-4.3806 0.1231016,0.1418 0.2433405,0.305 0.3701934,0.4319 2.961547,2.9615 10.0947286,4.9359 17.7692826,4.9359 z"
       id="path3781"
       inkscape:connector-curvature="0"
       inkscape:transform-center-x="-2.2828593"
       inkscape:transform-center-y="2.2828743" />
    <path
       sodipodi:nodetypes="zzzzzzzzz"
       inkscape:connector-curvature="0"
       id="path3770"
       d="m 24,1005.3622 c -7.774167,0 -15,2 -18,5 -3,3 -5,10.2258 -5,18 0,7.7742 2,15 5,18 3,3 10.2258,5 18,5 7.7742,0 15,-2 18,-5 3,-3 5,-10.2258 5,-18 0,-7.7742 -2,-15 -5,-18 -3,-3 -10.225833,-5 -18,-5 z"
       style="fill:url(#linearGradient3771);fill-opacity:1;stroke:none" />
    <path
       transform="translate(0,1004.3622)"
       inkscape:transform-center-y="-2.3125"
       inkscape:transform-center-x="2.3125"
       inkscape:connector-curvature="0"
       id="path3000"
       d="M 24,1 C 16.225833,1 9,3 6,6 3,9 1,16.2258 1,24 1,31.7742 3,39 6,42 6.128453,42.128453 6.2938409,42.250292 6.4375,42.375 3.7458496,39.080756 2,32.288313 2,25 2,17.2258 4,10 7,7 10,4 17.225833,2 25,2 32.288282,2 39.080753,3.7458496 42.375,6.4375 42.250292,6.2938409 42.128453,6.128453 42,6 39,3 31.774167,1 24,1 z"
       style="opacity:0.1;fill:#ffffff;fill-opacity:1;stroke:none" />
    <path
       style="opacity:0.10000000000000001;fill:#000000;fill-opacity:1;stroke:none"
       d="m 24,1051.3622 c 7.7742,0 15,-2 18,-5 3,-3 5,-10.2258 5,-18 0,-7.7742 -2,-15 -5,-18 -0.1285,-0.1285 -0.2938,-0.2503 -0.4375,-0.375 2.6917,3.2942 4.4375,10.0867 4.4375,17.375 0,7.7742 -2,15 -5,18 -3,3 -10.2258,5 -18,5 -7.2883,0 -14.0808,-1.7458 -17.375,-4.4375 0.1247,0.1437 0.2465,0.309 0.375,0.4375 3,3 10.2258,5 18,5 z"
       id="path3777"
       inkscape:connector-curvature="0"
       inkscape:transform-center-x="-2.3125"
       inkscape:transform-center-y="2.3125" />
    <path
       sodipodi:nodetypes="ccccc"
       inkscape:connector-curvature="0"
       id="rect2994"
       transform="translate(0,1004.3622)"
       d="m 24,12 -10,5 c 1.496509,13.228772 -2,13 10,19 12,-6 8.503491,-5.7712 10,-19 z"
       style="fill:#ffab00;fill-opacity:1;stroke:none" />
    <path
       style="opacity:0.44032922;fill:#000000;fill-opacity:1;stroke:none"
       d="M 24 15 L 17 18.75 C 17.065472 19.3701 17.114582 19.955148 17.15625 20.5 C 17.170541 20.688717 17.175492 20.913515 17.1875 21.09375 C 17.208523 21.41077 17.23477 21.739227 17.25 22.03125 C 17.251075 22.052199 17.24895 22.072926 17.25 22.09375 C 17.332151 23.70066 17.36765 24.896169 17.4375 25.90625 C 17.440788 25.954714 17.433918 26.015068 17.4375 26.0625 C 17.446341 26.177255 17.45784 26.328488 17.46875 26.4375 C 17.492507 26.669733 17.526033 26.91572 17.5625 27.125 C 17.621875 27.464565 17.705046 27.768445 17.8125 28.0625 C 17.866521 28.210255 17.89918 28.360231 17.96875 28.5 C 17.974858 28.512266 17.993763 28.519036 18 28.53125 C 18.064676 28.657872 18.139232 28.784211 18.21875 28.90625 C 18.267195 28.980831 18.320509 29.051607 18.375 29.125 C 18.517758 29.317254 18.685902 29.498402 18.875 29.6875 L 25.1875 36 L 36 36 L 36 23.75 L 31 18.75 L 24 15 z "
       transform="translate(0,1004.3622)"
       id="path3794"
       clip-path="url(#clipPath3844)" />
    <path
       style="fill:#ffd54f;fill-opacity:1;stroke:none"
       d="m 24,1019.3622 -7,3.75 c 1.047556,9.9216 -1.4,9.75 7,14.25 8.4,-4.5 5.952444,-4.3284 7,-14.25 z"
       id="path3768"
       inkscape:connector-curvature="0"
       sodipodi:nodetypes="ccccc" />
    <path
       style="opacity:0.1;fill:#000000;fill-opacity:1;stroke:none"
       d="M 33.96875 17.46875 C 32.612507 30.197701 35.848371 30.075814 24 36 C 20.522951 34.261475 18.373404 33.04653 17 31.875 C 18.229104 33.397913 20.532547 34.766274 25 37 C 37 31 33.503491 31.2288 35 18 L 33.96875 17.46875 z "
       transform="translate(0,1004.3622)"
       id="path3848" />
  </g>
</svg>
