<?xml version="1.0" encoding="UTF-8" standalone="no"?>
<!-- Created with Inkscape (http://www.inkscape.org/) -->

<svg
   xmlns:dc="http://purl.org/dc/elements/1.1/"
   xmlns:cc="http://creativecommons.org/ns#"
   xmlns:rdf="http://www.w3.org/1999/02/22-rdf-syntax-ns#"
   xmlns:svg="http://www.w3.org/2000/svg"
   xmlns="http://www.w3.org/2000/svg"
   xmlns:xlink="http://www.w3.org/1999/xlink"
   xmlns:sodipodi="http://sodipodi.sourceforge.net/DTD/sodipodi-0.dtd"
   xmlns:inkscape="http://www.inkscape.org/namespaces/inkscape"
   width="48"
   height="48"
   id="svg2"
   version="1.1"
   inkscape:version="0.48.4 r9939"
   sodipodi:docname="chrome-hdokiejnpimakedhajhdlcegeplioahd-Default.svg">
  <defs
     id="defs4">
    <linearGradient
       id="linearGradient3765">
      <stop
         style="stop-color:#f44336;stop-opacity:1;"
         offset="0"
         id="stop3767" />
      <stop
         style="stop-color:#e53935;stop-opacity:1;"
         offset="1"
         id="stop3769" />
    </linearGradient>
    <linearGradient
       inkscape:collect="always"
       xlink:href="#linearGradient3765"
       id="linearGradient3771"
       x1="6"
       y1="6"
       x2="42"
       y2="42"
       gradientUnits="userSpaceOnUse"
       gradientTransform="translate(0,1004.3622)" />
  </defs>
  <sodipodi:namedview
     id="base"
     pagecolor="#ffffff"
     bordercolor="#666666"
     borderopacity="1.0"
     inkscape:pageopacity="0.0"
     inkscape:pageshadow="2"
     inkscape:zoom="11.313708"
     inkscape:cx="26.454795"
     inkscape:cy="23.44515"
     inkscape:document-units="px"
     inkscape:current-layer="layer1"
     showgrid="true"
     inkscape:snap-bbox="true"
     inkscape:window-width="1301"
     inkscape:window-height="744"
     inkscape:window-x="65"
     inkscape:window-y="24"
     inkscape:window-maximized="1"
     inkscape:snap-global="true"
     showguides="true"
     inkscape:guide-bbox="true">
    <inkscape:grid
       type="xygrid"
       id="grid2985"
       empspacing="6"
       visible="true"
       enabled="true"
       snapvisiblegridlinesonly="true" />
    <sodipodi:guide
       orientation="1,0"
       position="12,30"
       id="guide3764" />
    <sodipodi:guide
       orientation="0,1"
       position="21,36"
       id="guide3766" />
    <sodipodi:guide
       orientation="0,1"
       position="20,12"
       id="guide3768" />
    <sodipodi:guide
       orientation="1,0"
       position="36,24"
       id="guide3770" />
  </sodipodi:namedview>
  <metadata
     id="metadata7">
    <rdf:RDF>
      <cc:Work
         rdf:about="">
        <dc:format>image/svg+xml</dc:format>
        <dc:type
           rdf:resource="http://purl.org/dc/dcmitype/StillImage" />
        <dc:title />
      </cc:Work>
    </rdf:RDF>
  </metadata>
  <g
     inkscape:label="Layer 1"
     inkscape:groupmode="layer"
     id="layer1"
     transform="translate(0,-1004.3622)">
    <path
       style="opacity:0.1;fill:#000000;fill-opacity:1;stroke:none"
       d="m 25,1052.3622 c 7.7742,0 15,-2 18,-5 3,-3 5,-10.2258 5,-18 0,-7.7742 -2,-15 -5,-18 -0.1285,-0.1285 -0.2938,-0.2503 -0.4375,-0.375 2.6917,3.2942 4.4375,10.0867 4.4375,17.375 0,7.7742 -2,15 -5,18 -3,3 -10.2258,5 -18,5 -7.2883,0 -14.0808,-1.7458 -17.375,-4.4375 0.1247,0.1437 0.2465,0.309 0.375,0.4375 3,3 10.2258,5 18,5 z"
       id="path3779"
       inkscape:connector-curvature="0"
       inkscape:transform-center-x="-2.3125"
       inkscape:transform-center-y="2.3125" />
    <path
       inkscape:transform-center-y="2.2828743"
       inkscape:transform-center-x="-2.2828593"
       inkscape:connector-curvature="0"
       id="path3781"
       d="m 24.764476,1051.8319 c 7.674553,0 14.807735,-1.9744 17.769282,-4.9359 2.961547,-2.9616 4.935912,-10.0947 4.935912,-17.7693 0,-7.6746 -1.974365,-14.8078 -4.935912,-17.7693 -0.126853,-0.1269 -0.290034,-0.2471 -0.431892,-0.3702 2.657199,3.2519 4.380621,9.9574 4.380621,17.1523 0,7.6745 -1.974364,14.8078 -4.935911,17.7693 -2.961547,2.9615 -10.094729,4.9359 -17.769282,4.9359 -7.194882,0 -13.9003179,-1.7235 -17.152294,-4.3806 0.1231016,0.1418 0.2433405,0.305 0.3701934,0.4319 2.961547,2.9615 10.0947286,4.9359 17.7692826,4.9359 z"
       style="opacity:0.2;fill:#000000;fill-opacity:1;stroke:none" />
    <path
       style="fill:url(#linearGradient3771);fill-opacity:1;stroke:none"
       d="m 24,1005.3622 c -7.774167,0 -15,2 -18,5 -3,3 -5,10.2258 -5,18 0,7.7742 2,15 5,18 3,3 10.2258,5 18,5 7.7742,0 15,-2 18,-5 3,-3 5,-10.2258 5,-18 0,-7.7742 -2,-15 -5,-18 -3,-3 -10.225833,-5 -18,-5 z"
       id="path3770"
       inkscape:connector-curvature="0"
       sodipodi:nodetypes="zzzzzzzzz" />
    <path
       style="opacity:0.1;fill:#ffffff;fill-opacity:1;stroke:none"
       d="M 24,1 C 16.225833,1 9,3 6,6 3,9 1,16.2258 1,24 1,31.7742 3,39 6,42 6.128453,42.128453 6.2938409,42.250292 6.4375,42.375 3.7458496,39.080756 2,32.288313 2,25 2,17.2258 4,10 7,7 10,4 17.225833,2 25,2 32.288282,2 39.080753,3.7458496 42.375,6.4375 42.250292,6.2938409 42.128453,6.128453 42,6 39,3 31.774167,1 24,1 z"
       id="path3000"
       inkscape:connector-curvature="0"
       inkscape:transform-center-x="2.3125"
       inkscape:transform-center-y="-2.3125"
       transform="translate(0,1004.3622)" />
    <path
       inkscape:transform-center-y="2.3125"
       inkscape:transform-center-x="-2.3125"
       inkscape:connector-curvature="0"
       id="path3777"
       d="m 24,1051.3622 c 7.7742,0 15,-2 18,-5 3,-3 5,-10.2258 5,-18 0,-7.7742 -2,-15 -5,-18 -0.1285,-0.1285 -0.2938,-0.2503 -0.4375,-0.375 2.6917,3.2942 4.4375,10.0867 4.4375,17.375 0,7.7742 -2,15 -5,18 -3,3 -10.2258,5 -18,5 -7.2883,0 -14.0808,-1.7458 -17.375,-4.4375 0.1247,0.1437 0.2465,0.309 0.375,0.4375 3,3 10.2258,5 18,5 z"
       style="opacity:0.10000000000000001;fill:#000000;fill-opacity:1;stroke:none" />
    <path
       style="fill:#ffffff;fill-opacity:1;stroke:none"
       d="M 18.75 13.34375 C 18.492172 13.376054 18.239889 13.45525 18 13.59375 C 17.040444 14.14775 16.72725 15.384194 17.28125 16.34375 L 20.5625 22 L 14 22 C 12.892 22 12 22.892 12 24 C 12 25.108 12.892 26 14 26 L 20.5625 26 L 17.28125 31.65625 C 16.72725 32.615806 17.040444 33.85225 18 34.40625 C 18.959556 34.96025 20.16475 34.615806 20.71875 33.65625 L 24 28 L 27.28125 33.65625 C 27.83525 34.615806 29.040444 34.96025 30 34.40625 C 30.959556 33.85225 31.27275 32.615806 30.71875 31.65625 L 27.4375 26 L 34 26 C 35.108 26 36 25.108 36 24 C 36 22.892 35.108 22 34 22 L 27.4375 22 L 30.71875 16.34375 C 31.27275 15.384194 30.959556 14.14775 30 13.59375 C 29.040444 13.03975 27.83525 13.384194 27.28125 14.34375 L 24 20 L 20.71875 14.34375 C 20.30325 13.624083 19.523483 13.246837 18.75 13.34375 z "
       transform="translate(0,1004.3622)"
       id="rect3772" />
    <path
       style="fill:#000000;fill-opacity:1;stroke:none;opacity:0.1"
       d="M 30.5625 14.0625 C 31.06759 14.691971 31.146667 15.602576 30.71875 16.34375 L 27.4375 22 L 28.8125 22 L 31.71875 17 C 32.27275 16.0404 31.959556 14.804 31 14.25 C 30.858889 14.168529 30.711383 14.106013 30.5625 14.0625 z M 20.53125 14.09375 C 20.596811 14.175487 20.664701 14.250135 20.71875 14.34375 L 24 20 L 24.3125 19.46875 L 21.71875 15 C 21.446944 14.529196 21.011089 14.234579 20.53125 14.09375 z M 35.5625 22.75 C 35.834827 23.091618 36 23.52719 36 24 C 36 25.108 35.108 26 34 26 L 27.4375 26 L 30.71875 31.65625 C 31.27275 32.615806 30.959556 33.85225 30 34.40625 C 29.520222 34.68325 28.990493 34.730556 28.5 34.59375 C 29.109287 35.334651 30.140938 35.55848 31 35.0625 C 31.959556 34.5085 32.27275 33.272 31.71875 32.3125 L 28.4375 26.65625 L 35 26.65625 C 36.108 26.65625 37 25.76425 37 24.65625 C 37 23.743779 36.394852 22.99193 35.5625 22.75 z M 13.46875 25.9375 C 13.834999 26.381655 14.37675 26.65625 15 26.65625 L 20.1875 26.65625 L 20.5625 26 L 14 26 C 13.816487 26 13.637341 25.983367 13.46875 25.9375 z M 24 28 L 20.71875 33.65625 C 20.239431 34.486454 19.279652 34.836699 18.40625 34.5625 C 18.561893 34.77132 18.760111 34.924 19 35.0625 C 19.959556 35.6165 21.16475 35.272 21.71875 34.3125 L 24.6875 29.1875 L 24 28 z "
       transform="translate(0,1004.3622)"
       id="path3780" />
  </g>
</svg>
