<?xml version="1.0" encoding="UTF-8" standalone="no"?>
<!-- Created with Inkscape (http://www.inkscape.org/) -->

<svg
   xmlns:dc="http://purl.org/dc/elements/1.1/"
   xmlns:cc="http://creativecommons.org/ns#"
   xmlns:rdf="http://www.w3.org/1999/02/22-rdf-syntax-ns#"
   xmlns:svg="http://www.w3.org/2000/svg"
   xmlns="http://www.w3.org/2000/svg"
   xmlns:xlink="http://www.w3.org/1999/xlink"
   xmlns:sodipodi="http://sodipodi.sourceforge.net/DTD/sodipodi-0.dtd"
   xmlns:inkscape="http://www.inkscape.org/namespaces/inkscape"
   width="48"
   height="48"
   id="svg2"
   version="1.1"
   inkscape:version="0.48.4 r9939"
   sodipodi:docname="master-pdf-editor.svg">
  <defs
     id="defs4">
    <linearGradient
       id="linearGradient3762">
      <stop
         style="stop-color:#c62828;stop-opacity:1;"
         offset="0"
         id="stop3764" />
      <stop
         style="stop-color:#c62845;stop-opacity:1;"
         offset="1"
         id="stop3766" />
    </linearGradient>
    <linearGradient
       inkscape:collect="always"
       xlink:href="#linearGradient3762"
       id="linearGradient3769"
       x1="6"
       y1="6"
       x2="42"
       y2="42"
       gradientUnits="userSpaceOnUse"
       gradientTransform="matrix(-1,0,0,-1,48,1052.3622)" />
  </defs>
  <sodipodi:namedview
     id="base"
     pagecolor="#ffffff"
     bordercolor="#666666"
     borderopacity="1.0"
     inkscape:pageopacity="0.0"
     inkscape:pageshadow="2"
     inkscape:zoom="11.313708"
     inkscape:cx="17.467293"
     inkscape:cy="21.872192"
     inkscape:document-units="px"
     inkscape:current-layer="layer1"
     showgrid="true"
     inkscape:snap-bbox="true"
     inkscape:window-width="1301"
     inkscape:window-height="744"
     inkscape:window-x="65"
     inkscape:window-y="24"
     inkscape:window-maximized="1"
     inkscape:snap-global="true">
    <inkscape:grid
       type="xygrid"
       id="grid2985"
       empspacing="6"
       visible="true"
       enabled="true"
       snapvisiblegridlinesonly="true" />
  </sodipodi:namedview>
  <metadata
     id="metadata7">
    <rdf:RDF>
      <cc:Work
         rdf:about="">
        <dc:format>image/svg+xml</dc:format>
        <dc:type
           rdf:resource="http://purl.org/dc/dcmitype/StillImage" />
        <dc:title />
      </cc:Work>
    </rdf:RDF>
  </metadata>
  <g
     inkscape:label="Layer 1"
     inkscape:groupmode="layer"
     id="layer1"
     transform="translate(0,-1004.3622)">
    <path
       style="opacity:0.1;fill:#000000;fill-opacity:1;stroke:none"
       d="m 25,1052.3622 c 7.7742,0 15,-2 18,-5 3,-3 5,-10.2258 5,-18 0,-7.7742 -2,-15 -5,-18 -0.1285,-0.1285 -0.2938,-0.2503 -0.4375,-0.375 2.6917,3.2942 4.4375,10.0867 4.4375,17.375 0,7.7742 -2,15 -5,18 -3,3 -10.2258,5 -18,5 -7.2883,0 -14.0808,-1.7458 -17.375,-4.4375 0.1247,0.1437 0.2465,0.309 0.375,0.4375 3,3 10.2258,5 18,5 z"
       id="path3779"
       inkscape:connector-curvature="0"
       inkscape:transform-center-x="-2.3125"
       inkscape:transform-center-y="2.3125" />
    <path
       inkscape:transform-center-y="2.2828743"
       inkscape:transform-center-x="-2.2828593"
       inkscape:connector-curvature="0"
       id="path3781"
       d="m 24.764476,1051.8319 c 7.674553,0 14.807735,-1.9744 17.769282,-4.9359 2.961547,-2.9616 4.935912,-10.0947 4.935912,-17.7693 0,-7.6746 -1.974365,-14.8078 -4.935912,-17.7693 -0.126853,-0.1269 -0.290034,-0.2471 -0.431892,-0.3702 2.657199,3.2519 4.380621,9.9574 4.380621,17.1523 0,7.6745 -1.974364,14.8078 -4.935911,17.7693 -2.961547,2.9615 -10.094729,4.9359 -17.769282,4.9359 -7.194882,0 -13.9003179,-1.7235 -17.152294,-4.3806 0.1231016,0.1418 0.2433405,0.305 0.3701934,0.4319 2.961547,2.9615 10.0947286,4.9359 17.7692826,4.9359 z"
       style="opacity:0.2;fill:#000000;fill-opacity:1;stroke:none" />
    <path
       style="fill:url(#linearGradient3769);fill-opacity:1;stroke:none"
       d="m 24,1051.3622 c 7.774167,0 15,-2 18,-5 3,-3 5,-10.2258 5,-18 0,-7.7742 -2,-15 -5,-18 -3,-3 -10.2258,-5 -18,-5 -7.7742,0 -15,2 -18,5 -3,3 -5,10.2258 -5,18 0,7.7742 2,15 5,18 3,3 10.225833,5 18,5 z"
       id="path3770"
       inkscape:connector-curvature="0"
       sodipodi:nodetypes="zzzzzzzzz" />
    <path
       style="opacity:0.1;fill:#ffffff;fill-opacity:1;stroke:none"
       d="M 24,1 C 16.225833,1 9,3 6,6 3,9 1,16.2258 1,24 1,31.7742 3,39 6,42 6.128453,42.128453 6.2938409,42.250292 6.4375,42.375 3.7458496,39.080756 2,32.288313 2,25 2,17.2258 4,10 7,7 10,4 17.225833,2 25,2 32.288282,2 39.080753,3.7458496 42.375,6.4375 42.250292,6.2938409 42.128453,6.128453 42,6 39,3 31.774167,1 24,1 z"
       id="path3000"
       inkscape:connector-curvature="0"
       inkscape:transform-center-x="2.3125"
       inkscape:transform-center-y="-2.3125"
       transform="translate(0,1004.3622)" />
    <path
       inkscape:transform-center-y="2.3125"
       inkscape:transform-center-x="-2.3125"
       inkscape:connector-curvature="0"
       id="path3777"
       d="m 24,1051.3622 c 7.7742,0 15,-2 18,-5 3,-3 5,-10.2258 5,-18 0,-7.7742 -2,-15 -5,-18 -0.1285,-0.1285 -0.2938,-0.2503 -0.4375,-0.375 2.6917,3.2942 4.4375,10.0867 4.4375,17.375 0,7.7742 -2,15 -5,18 -3,3 -10.2258,5 -18,5 -7.2883,0 -14.0808,-1.7458 -17.375,-4.4375 0.1247,0.1437 0.2465,0.309 0.375,0.4375 3,3 10.2258,5 18,5 z"
       style="opacity:0.10000000000000001;fill:#000000;fill-opacity:1;stroke:none" />
    <path
       inkscape:connector-curvature="0"
       id="path3771"
       d="m 28.535926,1014.4203 c -0.556604,0.1314 -1.04194,0.4918 -1.40625,0.9237 -0.72862,0.8637 -1.148219,2.0614 -1.46875,3.4892 -0.371039,1.6527 -0.524382,3.654 -0.59375,5.7812 -0.702271,0.719 -1.383127,1.4439 -2.15625,2.121 -1.185178,1.0377 -2.414995,1.9913 -3.625,2.805 -1.794695,-0.6733 -3.517887,-1.1969 -4.96875,-1.3683 -1.226845,-0.1451 -2.312754,-0.1268 -3.21875,0.4447 -0.452998,0.2858 -0.838364,0.7769 -1,1.3684 -0.1616359,0.5913 -0.1125449,1.1977 0.0625,1.8129 0.362717,1.2749 1.344826,2.1699 2.4375,2.3946 1.092674,0.2249 2.274999,-0.037 3.53125,-0.513 1.036961,-0.3931 2.161481,-1.0174 3.28125,-1.7106 0.935696,0.374 1.867352,0.6972 2.8125,1.1632 1.210872,0.5971 2.368227,1.2963 3.46875,1.9841 0.28688,1.687 0.689312,3.2538 1.15625,4.5496 0.484141,1.3438 1.036514,2.4418 1.90625,3.1473 0.869736,0.7054 2.200234,0.7579 3.1875,0 0.987261,-0.758 1.420193,-2.1468 1.125,-3.2841 -0.295193,-1.1372 -1.034426,-2.0815 -2,-3.0446 -0.950472,-0.948 -2.15451,-1.9134 -3.5,-2.8049 -0.207459,-1.4281 -0.415893,-2.9141 -0.5,-4.4472 -0.06834,-1.2458 -0.01882,-2.4513 0,-3.6603 1.402776,-1.4983 2.654511,-2.9966 3.5,-4.447 0.698788,-1.1988 1.193835,-2.359 1.25,-3.5236 0.05617,-1.1643 -0.538544,-2.3981 -1.59375,-2.9417 -0.532629,-0.2746 -1.130896,-0.3709 -1.6875,-0.2396 z m 0.40625,2.1552 c 0.08192,-0.02 0.180227,-0.048 0.40625,0.068 0.462097,0.2382 0.493557,0.3409 0.46875,0.8553 -0.02481,0.5142 -0.340173,1.4041 -0.9375,2.4287 -0.388328,0.6662 -1.007313,1.4459 -1.59375,2.1893 0.09974,-0.9679 0.140556,-2.0048 0.3125,-2.7708 0.278307,-1.2396 0.684728,-2.1577 1,-2.5314 0.157636,-0.1869 0.261828,-0.2201 0.34375,-0.2394 z m -3.875,10.9809 c 0.01436,0.6133 -0.03382,1.1965 0,1.8129 0.0588,1.072 0.227642,2.0732 0.34375,3.113 -0.789154,-0.4515 -1.550428,-0.9275 -2.375,-1.3342 -0.516607,-0.2546 -1.013473,-0.4183 -1.53125,-0.6499 0.892623,-0.6592 1.79387,-1.2972 2.65625,-2.0525 0.324139,-0.2838 0.591463,-0.597 0.90625,-0.8893 z m -10.96875,2.805 c 0.71017,0.084 1.651239,0.3854 2.5625,0.6499 -0.38239,0.1873 -0.836071,0.4826 -1.1875,0.6158 -1.069122,0.4052 -1.967816,0.5201 -2.5,0.4106 -0.532184,-0.1096 -0.727754,-0.2621 -0.90625,-0.8896 -0.09556,-0.3358 -0.07469,-0.5026 -0.0625,-0.5473 0.01219,-0.044 -0.0083,-0.038 0.09375,-0.1025 0.204197,-0.1288 0.970458,-0.2585 2,-0.1368 z m 14.125,6.568 c 0.490456,0.3912 1.092121,0.7874 1.46875,1.1631 0.823444,0.8213 1.323553,1.6135 1.4375,2.0526 0.113947,0.4389 0.14494,0.4799 -0.34375,0.855 -0.488685,0.3753 -0.512437,0.3372 -0.84375,0.069 -0.331313,-0.2687 -0.836351,-1.0413 -1.25,-2.1893 -0.187184,-0.5196 -0.307826,-1.3068 -0.46875,-1.9499 z"
       style="font-size:medium;font-style:normal;font-variant:normal;font-weight:normal;font-stretch:normal;text-indent:0;text-align:start;text-decoration:none;line-height:normal;letter-spacing:normal;word-spacing:normal;text-transform:none;direction:ltr;block-progression:tb;writing-mode:lr-tb;text-anchor:start;baseline-shift:baseline;opacity:0.1;color:#000000;fill:#000000;fill-opacity:1;stroke:none;stroke-width:2;marker:none;visibility:visible;display:inline;overflow:visible;enable-background:accumulate;font-family:Sans;-inkscape-font-specification:Sans" />
    <path
       style="font-size:medium;font-style:normal;font-variant:normal;font-weight:normal;font-stretch:normal;text-indent:0;text-align:start;text-decoration:none;line-height:normal;letter-spacing:normal;word-spacing:normal;text-transform:none;direction:ltr;block-progression:tb;writing-mode:lr-tb;text-anchor:start;baseline-shift:baseline;color:#000000;fill:#ffffff;fill-opacity:1;stroke:none;stroke-width:2;marker:none;visibility:visible;display:inline;overflow:visible;enable-background:accumulate;font-family:Sans;-inkscape-font-specification:Sans"
       d="m 28.535926,1014.4153 c -0.556604,0.12 -1.04194,0.4492 -1.40625,0.8438 -0.72862,0.789 -1.148219,1.8832 -1.46875,3.1874 -0.371039,1.5098 -0.524382,3.338 -0.59375,5.2813 -0.702271,0.6568 -1.383127,1.319 -2.15625,1.9375 -1.185178,0.9481 -2.414995,1.8192 -3.625,2.5625 -1.794695,-0.6151 -3.517887,-1.0934 -4.96875,-1.25 -1.226845,-0.1325 -2.312754,-0.1158 -3.21875,0.4063 -0.452998,0.261 -0.838364,0.7097 -1,1.25 -0.1616359,0.5402 -0.1125449,1.0942 0.0625,1.6562 0.362717,1.1646 1.344826,1.9821 2.4375,2.1875 1.092674,0.2054 2.274999,-0.034 3.53125,-0.4687 1.036961,-0.3591 2.161481,-0.9294 3.28125,-1.5626 0.935696,0.3416 1.867352,0.6368 2.8125,1.0626 1.210872,0.5454 2.368227,1.1842 3.46875,1.8124 0.28688,1.5412 0.689312,2.9724 1.15625,4.1563 0.484141,1.2275 1.036514,2.2306 1.90625,2.875 0.869736,0.6444 2.200234,0.6924 3.1875,0 0.987261,-0.6924 1.420193,-1.9611 1.125,-3 -0.295193,-1.0389 -1.034426,-1.9015 -2,-2.7813 -0.950472,-0.866 -2.15451,-1.748 -3.5,-2.5624 -0.207459,-1.3046 -0.415893,-2.662 -0.5,-4.0626 -0.06834,-1.138 -0.01882,-2.2393 0,-3.3437 1.402776,-1.3688 2.654511,-2.7375 3.5,-4.0625 0.698788,-1.0951 1.193835,-2.155 1.25,-3.2188 0.05617,-1.0637 -0.538544,-2.1907 -1.59375,-2.6874 -0.532629,-0.2508 -1.130896,-0.3388 -1.6875,-0.2188 z m 0.40625,1.9688 c 0.08192,-0.018 0.180227,-0.044 0.40625,0.062 0.462097,0.2176 0.493557,0.3115 0.46875,0.7813 -0.02481,0.4698 -0.340173,1.2827 -0.9375,2.2187 -0.388328,0.6086 -1.007313,1.3208 -1.59375,2 0.09974,-0.8842 0.140556,-1.8315 0.3125,-2.5312 0.278307,-1.1324 0.684728,-1.9711 1,-2.3125 0.157636,-0.1707 0.261828,-0.2011 0.34375,-0.2187 z m -3.875,10.0312 c 0.01436,0.5603 -0.03382,1.0931 0,1.6562 0.0588,0.9793 0.227642,1.8939 0.34375,2.8438 -0.789154,-0.4125 -1.550428,-0.8473 -2.375,-1.2188 -0.516607,-0.2326 -1.013473,-0.3822 -1.53125,-0.5937 0.892623,-0.6023 1.79387,-1.1851 2.65625,-1.875 0.324139,-0.2593 0.591463,-0.5454 0.90625,-0.8125 z m -10.96875,2.5625 c 0.71017,0.077 1.651239,0.352 2.5625,0.5937 -0.38239,0.171 -0.836071,0.4409 -1.1875,0.5626 -1.069122,0.3701 -1.967816,0.475 -2.5,0.375 -0.532184,-0.1001 -0.727754,-0.2395 -0.90625,-0.8126 -0.09556,-0.3068 -0.07469,-0.4592 -0.0625,-0.5 0.01219,-0.041 -0.0083,-0.035 0.09375,-0.094 0.204197,-0.1177 0.970458,-0.2362 2,-0.125 z m 14.125,6 c 0.490456,0.3573 1.092121,0.7193 1.46875,1.0625 0.823444,0.7503 1.323553,1.474 1.4375,1.875 0.113947,0.401 0.14494,0.4385 -0.34375,0.7812 -0.488685,0.3428 -0.512437,0.308 -0.84375,0.063 -0.331313,-0.2455 -0.836351,-0.9513 -1.25,-2 -0.187184,-0.4746 -0.307826,-1.1938 -0.46875,-1.7813 z"
       id="path2996"
       inkscape:connector-curvature="0" />
  </g>
</svg>
