<?xml version="1.0" encoding="UTF-8" standalone="no"?>
<!-- Created with Inkscape (http://www.inkscape.org/) -->

<svg
   xmlns:dc="http://purl.org/dc/elements/1.1/"
   xmlns:cc="http://creativecommons.org/ns#"
   xmlns:rdf="http://www.w3.org/1999/02/22-rdf-syntax-ns#"
   xmlns:svg="http://www.w3.org/2000/svg"
   xmlns="http://www.w3.org/2000/svg"
   xmlns:xlink="http://www.w3.org/1999/xlink"
   xmlns:sodipodi="http://sodipodi.sourceforge.net/DTD/sodipodi-0.dtd"
   xmlns:inkscape="http://www.inkscape.org/namespaces/inkscape"
   width="48"
   height="48"
   id="svg2"
   version="1.1"
   inkscape:version="0.48.4 r9939"
   sodipodi:docname="photoqt.svg">
  <defs
     id="defs4">
    <linearGradient
       id="linearGradient3765">
      <stop
         style="stop-color:#e53935;stop-opacity:1;"
         offset="0"
         id="stop3767" />
      <stop
         style="stop-color:#f44336;stop-opacity:1;"
         offset="1"
         id="stop3769" />
    </linearGradient>
    <linearGradient
       inkscape:collect="always"
       xlink:href="#linearGradient3765"
       id="linearGradient3771"
       x1="6"
       y1="6"
       x2="42"
       y2="42"
       gradientUnits="userSpaceOnUse"
       gradientTransform="matrix(-1,0,0,-1,48,1052.3622)" />
    <linearGradient
       inkscape:collect="always"
       xlink:href="#linearGradient3765"
       id="linearGradient3815"
       gradientUnits="userSpaceOnUse"
       gradientTransform="matrix(-0.48965026,0,0,-0.48965026,34.95723,1039.4918)"
       x1="6"
       y1="6"
       x2="42"
       y2="42" />
  </defs>
  <sodipodi:namedview
     id="base"
     pagecolor="#ffffff"
     bordercolor="#666666"
     borderopacity="1.0"
     inkscape:pageopacity="0.0"
     inkscape:pageshadow="2"
     inkscape:zoom="8.3821616"
     inkscape:cx="11.906774"
     inkscape:cy="23.930112"
     inkscape:document-units="px"
     inkscape:current-layer="layer1"
     showgrid="true"
     inkscape:snap-bbox="true"
     inkscape:window-width="1301"
     inkscape:window-height="744"
     inkscape:window-x="65"
     inkscape:window-y="24"
     inkscape:window-maximized="1"
     inkscape:snap-global="true">
    <inkscape:grid
       type="xygrid"
       id="grid2985"
       empspacing="6"
       visible="true"
       enabled="true"
       snapvisiblegridlinesonly="true" />
  </sodipodi:namedview>
  <metadata
     id="metadata7">
    <rdf:RDF>
      <cc:Work
         rdf:about="">
        <dc:format>image/svg+xml</dc:format>
        <dc:type
           rdf:resource="http://purl.org/dc/dcmitype/StillImage" />
        <dc:title />
      </cc:Work>
    </rdf:RDF>
  </metadata>
  <g
     inkscape:label="Layer 1"
     inkscape:groupmode="layer"
     id="layer1"
     transform="translate(0,-1004.3622)">
    <path
       style="opacity:0.1;fill:#000000;fill-opacity:1;stroke:none"
       d="m 25,1052.3622 c 7.7742,0 15,-2 18,-5 3,-3 5,-10.2258 5,-18 0,-7.7742 -2,-15 -5,-18 -0.1285,-0.1285 -0.2938,-0.2503 -0.4375,-0.375 2.6917,3.2942 4.4375,10.0867 4.4375,17.375 0,7.7742 -2,15 -5,18 -3,3 -10.2258,5 -18,5 -7.2883,0 -14.0808,-1.7458 -17.375,-4.4375 0.1247,0.1437 0.2465,0.309 0.375,0.4375 3,3 10.2258,5 18,5 z"
       id="path3779"
       inkscape:connector-curvature="0"
       inkscape:transform-center-x="-2.3125"
       inkscape:transform-center-y="2.3125" />
    <path
       inkscape:transform-center-y="2.2828743"
       inkscape:transform-center-x="-2.2828593"
       inkscape:connector-curvature="0"
       id="path3781"
       d="m 24.764476,1051.8319 c 7.674553,0 14.807735,-1.9744 17.769282,-4.9359 2.961547,-2.9616 4.935912,-10.0947 4.935912,-17.7693 0,-7.6746 -1.974365,-14.8078 -4.935912,-17.7693 -0.126853,-0.1269 -0.290034,-0.2471 -0.431892,-0.3702 2.657199,3.2519 4.380621,9.9574 4.380621,17.1523 0,7.6745 -1.974364,14.8078 -4.935911,17.7693 -2.961547,2.9615 -10.094729,4.9359 -17.769282,4.9359 -7.194882,0 -13.9003179,-1.7235 -17.152294,-4.3806 0.1231016,0.1418 0.2433405,0.305 0.3701934,0.4319 2.961547,2.9615 10.0947286,4.9359 17.7692826,4.9359 z"
       style="opacity:0.2;fill:#000000;fill-opacity:1;stroke:none" />
    <path
       style="fill:url(#linearGradient3771);fill-opacity:1;stroke:none"
       d="m 24,1051.3622 c 7.774167,0 15,-2 18,-5 3,-3 5,-10.2258 5,-18 0,-7.7742 -2,-15 -5,-18 -3,-3 -10.2258,-5 -18,-5 -7.7742,0 -15,2 -18,5 -3,3 -5,10.2258 -5,18 0,7.7742 2,15 5,18 3,3 10.225833,5 18,5 z"
       id="path3770"
       inkscape:connector-curvature="0"
       sodipodi:nodetypes="zzzzzzzzz" />
    <path
       style="opacity:0.1;fill:#ffffff;fill-opacity:1;stroke:none"
       d="M 24,1 C 16.225833,1 9,3 6,6 3,9 1,16.2258 1,24 1,31.7742 3,39 6,42 6.128453,42.128453 6.2938409,42.250292 6.4375,42.375 3.7458496,39.080756 2,32.288313 2,25 2,17.2258 4,10 7,7 10,4 17.225833,2 25,2 32.288282,2 39.080753,3.7458496 42.375,6.4375 42.250292,6.2938409 42.128453,6.128453 42,6 39,3 31.774167,1 24,1 z"
       id="path3000"
       inkscape:connector-curvature="0"
       inkscape:transform-center-x="2.3125"
       inkscape:transform-center-y="-2.3125"
       transform="translate(0,1004.3622)" />
    <path
       inkscape:transform-center-y="2.3125"
       inkscape:transform-center-x="-2.3125"
       inkscape:connector-curvature="0"
       id="path3777"
       d="m 24,1051.3622 c 7.7742,0 15,-2 18,-5 3,-3 5,-10.2258 5,-18 0,-7.7742 -2,-15 -5,-18 -0.1285,-0.1285 -0.2938,-0.2503 -0.4375,-0.375 2.6917,3.2942 4.4375,10.0867 4.4375,17.375 0,7.7742 -2,15 -5,18 -3,3 -10.2258,5 -18,5 -7.2883,0 -14.0808,-1.7458 -17.375,-4.4375 0.1247,0.1437 0.2465,0.309 0.375,0.4375 3,3 10.2258,5 18,5 z"
       style="opacity:0.10000000000000001;fill:#000000;fill-opacity:1;stroke:none" />
    <path
       style="fill:#ffffff;fill-opacity:1;stroke:none"
       d="m 11.722295,1019.3622 c -0.427997,2.9375 -0.721071,5.9635 -0.722291,9.1024 -0.0012,3.1389 0.289416,6.3908 1.017293,9.7312 10.222084,2.1822 19.155824,0.6591 26.801219,-4.5691 -1.675731,-1.9933 -3.013406,-4.1438 -4.11719,-6.4271 -1.103782,-2.2834 -1.973675,-4.6996 -2.72539,-7.2731 -6.291324,3.5172 -13.042537,3.3291 -20.253641,-0.5643 z m 5.680643,4.887 c 0.245861,0.06 0.491074,0.1149 0.735638,0.1662 0.489127,0.1026 0.975658,0.1888 1.459593,0.2584 2.66164,0.3831 5.244744,0.2681 7.749312,-0.3451 0.422073,1.8319 0.92322,3.6239 1.546305,5.382 0.267036,0.7534 0.556432,1.5005 0.871418,2.241 -2.845495,0.8908 -5.825218,1.2835 -8.939167,1.1781 0.269625,1.1344 0.588866,2.2715 0.966058,3.4099 -0.895125,0.015 -1.80189,-0.01 -2.720296,-0.065 -1.158394,-4.1522 -1.586474,-8.2272 -1.668859,-12.2252 -1e-6,0 -2e-6,0 -2e-6,0 z m 2.416993,2.9514 c 0.122577,1.1245 0.279467,2.2514 0.479525,3.3815 2.168941,0.151 4.275724,0.039 6.320346,-0.3373 -0.317925,-1.0389 -0.595156,-2.0851 -0.839843,-3.1393 -1.936299,0.2952 -3.922975,0.3269 -5.960028,0.095 z"
       id="rect3004"
       inkscape:connector-curvature="0" />
    <path
       style="fill:#000000;fill-opacity:1;stroke:none;opacity:0.2"
       d="M 32.96875 16.5625 C 32.772146 16.672412 32.572502 16.772324 32.375 16.875 C 33.033895 18.961555 33.773608 20.953176 34.6875 22.84375 C 35.791284 25.12705 37.136769 27.2567 38.8125 29.25 C 31.382202 34.331109 22.73904 35.91818 12.875 34 C 12.930256 34.280454 12.969861 34.562022 13.03125 34.84375 C 23.253334 37.02595 32.167105 35.4782 39.8125 30.25 C 38.136769 28.2567 36.791284 26.12705 35.6875 23.84375 C 34.583718 21.56035 33.720465 19.136 32.96875 16.5625 z M 17.40625 19.875 C 17.488635 23.873 17.904106 27.9728 19.0625 32.125 C 19.313082 32.140006 19.563651 32.145913 19.8125 32.15625 C 18.846091 28.336727 18.482253 24.563301 18.40625 20.875 C 18.652111 20.935 18.880436 21.0112 19.125 21.0625 C 19.614127 21.1651 20.109815 21.2429 20.59375 21.3125 C 22.999463 21.658763 25.347605 21.592644 27.625 21.125 C 27.527927 20.739884 27.433296 20.3574 27.34375 19.96875 C 24.839182 20.58195 22.25539 20.6956 19.59375 20.3125 C 19.109815 20.2429 18.614127 20.1651 18.125 20.0625 C 17.880436 20.0112 17.652111 19.935 17.40625 19.875 z M 26.78125 23.75 C 26.544846 23.786041 26.300405 23.784315 26.0625 23.8125 C 26.239135 24.504322 26.415293 25.189731 26.625 25.875 C 24.850967 26.2015 23.023875 26.320597 21.15625 26.25 C 21.206732 26.57359 21.255126 26.894652 21.3125 27.21875 C 23.481441 27.36975 25.580378 27.2513 27.625 26.875 C 27.307075 25.8361 27.025937 24.8042 26.78125 23.75 z "
       transform="translate(0,1004.3622)"
       id="path3792" />
  </g>
</svg>
