<?xml version="1.0" encoding="UTF-8" standalone="no"?>
<!-- Created with Inkscape (http://www.inkscape.org/) -->

<svg
   xmlns:dc="http://purl.org/dc/elements/1.1/"
   xmlns:cc="http://creativecommons.org/ns#"
   xmlns:rdf="http://www.w3.org/1999/02/22-rdf-syntax-ns#"
   xmlns:svg="http://www.w3.org/2000/svg"
   xmlns="http://www.w3.org/2000/svg"
   xmlns:xlink="http://www.w3.org/1999/xlink"
   xmlns:sodipodi="http://sodipodi.sourceforge.net/DTD/sodipodi-0.dtd"
   xmlns:inkscape="http://www.inkscape.org/namespaces/inkscape"
   width="48"
   height="48"
   id="svg2"
   version="1.1"
   inkscape:version="0.48.4 r9939"
   sodipodi:docname="qmlscene.svg">
  <defs
     id="defs4">
    <linearGradient
       id="linearGradient3765">
      <stop
         style="stop-color:#00c853;stop-opacity:1;"
         offset="0"
         id="stop3767" />
      <stop
         style="stop-color:#00e65f;stop-opacity:1;"
         offset="1"
         id="stop3769" />
    </linearGradient>
    <linearGradient
       inkscape:collect="always"
       xlink:href="#linearGradient3765"
       id="linearGradient3771"
       x1="6"
       y1="6"
       x2="42"
       y2="42"
       gradientUnits="userSpaceOnUse"
       gradientTransform="matrix(-1,0,0,-1,48,1052.3622)" />
  </defs>
  <sodipodi:namedview
     id="base"
     pagecolor="#ffffff"
     bordercolor="#666666"
     borderopacity="1.0"
     inkscape:pageopacity="0.0"
     inkscape:pageshadow="2"
     inkscape:zoom="11.313708"
     inkscape:cx="14.682967"
     inkscape:cy="25.41687"
     inkscape:document-units="px"
     inkscape:current-layer="layer1"
     showgrid="true"
     inkscape:snap-bbox="true"
     inkscape:window-width="1301"
     inkscape:window-height="744"
     inkscape:window-x="65"
     inkscape:window-y="24"
     inkscape:window-maximized="1"
     inkscape:snap-global="true">
    <inkscape:grid
       type="xygrid"
       id="grid2985"
       empspacing="6"
       visible="true"
       enabled="true"
       snapvisiblegridlinesonly="true" />
  </sodipodi:namedview>
  <metadata
     id="metadata7">
    <rdf:RDF>
      <cc:Work
         rdf:about="">
        <dc:format>image/svg+xml</dc:format>
        <dc:type
           rdf:resource="http://purl.org/dc/dcmitype/StillImage" />
        <dc:title />
      </cc:Work>
    </rdf:RDF>
  </metadata>
  <g
     inkscape:label="Layer 1"
     inkscape:groupmode="layer"
     id="layer1"
     transform="translate(0,-1004.3622)">
    <path
       style="opacity:0.1;fill:#000000;fill-opacity:1;stroke:none"
       d="m 25,1052.3622 c 7.7742,0 15,-2 18,-5 3,-3 5,-10.2258 5,-18 0,-7.7742 -2,-15 -5,-18 -0.1285,-0.1285 -0.2938,-0.2503 -0.4375,-0.375 2.6917,3.2942 4.4375,10.0867 4.4375,17.375 0,7.7742 -2,15 -5,18 -3,3 -10.2258,5 -18,5 -7.2883,0 -14.0808,-1.7458 -17.375,-4.4375 0.1247,0.1437 0.2465,0.309 0.375,0.4375 3,3 10.2258,5 18,5 z"
       id="path3779"
       inkscape:connector-curvature="0"
       inkscape:transform-center-x="-2.3125"
       inkscape:transform-center-y="2.3125" />
    <path
       inkscape:transform-center-y="2.2828743"
       inkscape:transform-center-x="-2.2828593"
       inkscape:connector-curvature="0"
       id="path3781"
       d="m 24.764476,1051.8319 c 7.674553,0 14.807735,-1.9744 17.769282,-4.9359 2.961547,-2.9616 4.935912,-10.0947 4.935912,-17.7693 0,-7.6746 -1.974365,-14.8078 -4.935912,-17.7693 -0.126853,-0.1269 -0.290034,-0.2471 -0.431892,-0.3702 2.657199,3.2519 4.380621,9.9574 4.380621,17.1523 0,7.6745 -1.974364,14.8078 -4.935911,17.7693 -2.961547,2.9615 -10.094729,4.9359 -17.769282,4.9359 -7.194882,0 -13.9003179,-1.7235 -17.152294,-4.3806 0.1231016,0.1418 0.2433405,0.305 0.3701934,0.4319 2.961547,2.9615 10.0947286,4.9359 17.7692826,4.9359 z"
       style="opacity:0.2;fill:#000000;fill-opacity:1;stroke:none" />
    <path
       style="fill:url(#linearGradient3771);fill-opacity:1;stroke:none"
       d="m 24,1051.3622 c 7.774167,0 15,-2 18,-5 3,-3 5,-10.2258 5,-18 0,-7.7742 -2,-15 -5,-18 -3,-3 -10.2258,-5 -18,-5 -7.7742,0 -15,2 -18,5 -3,3 -5,10.2258 -5,18 0,7.7742 2,15 5,18 3,3 10.225833,5 18,5 z"
       id="path3770"
       inkscape:connector-curvature="0"
       sodipodi:nodetypes="zzzzzzzzz" />
    <path
       style="opacity:0.1;fill:#ffffff;fill-opacity:1;stroke:none"
       d="M 24,1 C 16.225833,1 9,3 6,6 3,9 1,16.2258 1,24 1,31.7742 3,39 6,42 6.128453,42.128453 6.2938409,42.250292 6.4375,42.375 3.7458496,39.080756 2,32.288313 2,25 2,17.2258 4,10 7,7 10,4 17.225833,2 25,2 32.288282,2 39.080753,3.7458496 42.375,6.4375 42.250292,6.2938409 42.128453,6.128453 42,6 39,3 31.774167,1 24,1 z"
       id="path3000"
       inkscape:connector-curvature="0"
       inkscape:transform-center-x="2.3125"
       inkscape:transform-center-y="-2.3125"
       transform="translate(0,1004.3622)" />
    <path
       inkscape:transform-center-y="2.3125"
       inkscape:transform-center-x="-2.3125"
       inkscape:connector-curvature="0"
       id="path3777"
       d="m 24,1051.3622 c 7.7742,0 15,-2 18,-5 3,-3 5,-10.2258 5,-18 0,-7.7742 -2,-15 -5,-18 -0.1285,-0.1285 -0.2938,-0.2503 -0.4375,-0.375 2.6917,3.2942 4.4375,10.0867 4.4375,17.375 0,7.7742 -2,15 -5,18 -3,3 -10.2258,5 -18,5 -7.2883,0 -14.0808,-1.7458 -17.375,-4.4375 0.1247,0.1437 0.2465,0.309 0.375,0.4375 3,3 10.2258,5 18,5 z"
       style="opacity:0.10000000000000001;fill:#000000;fill-opacity:1;stroke:none" />
    <path
       style="opacity:1;fill:#ffffff;fill-opacity:1;stroke:none"
       d="M 14 15 L 14 17 L 16 17 L 16 15 L 14 15 z M 20 15 L 20 26 L 22 26 L 22 15 L 20 15 z M 26 15 L 26 16 L 28 16 L 28 15 L 26 15 z M 32 15 L 32 23 L 34 23 L 34 15 L 32 15 z M 24 17 L 24 21 L 30 21 L 30 17 L 24 17 z M 12 18 L 12 22 L 18 22 L 18 18 L 12 18 z M 25 18 L 26 18 L 26 19 L 27 19 L 27 18 L 28 18 L 28 19 L 29 19 L 29 20 L 28 20 L 28 19 L 27 19 L 27 20 L 26 20 L 26 19 L 25 19 L 25 18 z M 13 19 L 17 19 L 17 21 L 13 21 L 13 19 z M 26 22 L 26 34 L 28 34 L 28 22 L 26 22 z M 14 23 L 14 34 L 16 34 L 16 23 L 14 23 z M 30 24 L 30 25 L 36 25 L 36 24 L 30 24 z M 18 27 L 18 31 L 24 31 L 24 27 L 18 27 z M 30 27 L 30 28 L 36 28 L 36 27 L 30 27 z M 20 28 L 22 28 L 22 30 L 20 30 L 20 28 z M 32 29 L 32 34 L 34 34 L 34 29 L 32 29 z M 20 32 L 20 34 L 22 34 L 22 32 L 20 32 z "
       transform="translate(0,1004.3622)"
       id="rect3762" />
    <path
       style="fill:#000000;fill-opacity:1;stroke:none;opacity:0.2"
       d="M 16 16 L 16 17 L 15 17 L 15 18 L 17 18 L 17 16 L 16 16 z M 22 16 L 22 26 L 21 26 L 21 27 L 23 27 L 23 16 L 22 16 z M 27 16 L 27 17 L 29 17 L 29 16 L 28 16 L 27 16 z M 34 16 L 34 23 L 33 23 L 33 24 L 35 24 L 35 16 L 34 16 z M 25 18 L 25 19 L 26 19 L 26 18 L 25 18 z M 27 18 L 27 19 L 28 19 L 28 18 L 27 18 z M 30 18 L 30 20 L 30 21 L 29 21 L 28 21 L 27 21 L 25 21 L 25 22 L 26 22 L 28 22 L 31 22 L 31 18 L 30 18 z M 13 19 L 13 21 L 14 21 L 14 20 L 17 20 L 17 19 L 13 19 z M 18 19 L 18 20 L 18 22 L 14 22 L 13 22 L 13 23 L 14 23 L 16 23 L 19 23 L 19 19 L 18 19 z M 28 23 L 28 34 L 27 34 L 27 35 L 29 35 L 29 23 L 28 23 z M 16 24 L 16 34 L 15 34 L 15 35 L 17 35 L 17 24 L 16 24 z M 31 25 L 31 26 L 37 26 L 37 25 L 36 25 L 31 25 z M 20 28 L 20 30 L 21 30 L 21 29 L 22 29 L 22 28 L 20 28 z M 24 28 L 24 31 L 23 31 L 21 31 L 19 31 L 19 32 L 20 32 L 22 32 L 25 32 L 25 28 L 24 28 z M 31 28 L 31 29 L 32 29 L 34 29 L 37 29 L 37 28 L 36 28 L 31 28 z M 34 30 L 34 34 L 33 34 L 33 35 L 35 35 L 35 30 L 34 30 z M 22 33 L 22 34 L 21 34 L 21 35 L 23 35 L 23 33 L 22 33 z "
       transform="translate(0,1004.3622)"
       id="path3817" />
  </g>
</svg>
