<?xml version="1.0" encoding="UTF-8" standalone="no"?>
<!-- Created with Inkscape (http://www.inkscape.org/) -->

<svg
   xmlns:dc="http://purl.org/dc/elements/1.1/"
   xmlns:cc="http://creativecommons.org/ns#"
   xmlns:rdf="http://www.w3.org/1999/02/22-rdf-syntax-ns#"
   xmlns:svg="http://www.w3.org/2000/svg"
   xmlns="http://www.w3.org/2000/svg"
   xmlns:xlink="http://www.w3.org/1999/xlink"
   xmlns:sodipodi="http://sodipodi.sourceforge.net/DTD/sodipodi-0.dtd"
   xmlns:inkscape="http://www.inkscape.org/namespaces/inkscape"
   width="48"
   height="48"
   id="svg2"
   version="1.1"
   inkscape:version="0.48.4 r9939"
   sodipodi:docname="skanlite.svg">
  <defs
     id="defs4">
    <linearGradient
       inkscape:collect="always"
       xlink:href="#linearGradient4029"
       id="linearGradient3771"
       x1="42"
       y1="42"
       x2="6"
       y2="6"
       gradientUnits="userSpaceOnUse"
       gradientTransform="matrix(-1,0,0,-1,48,1052.3622)"
       spreadMethod="pad" />
    <linearGradient
       id="linearGradient4029">
      <stop
         id="stop4031"
         offset="0"
         style="stop-color:#03a9f4;stop-opacity:1;" />
      <stop
         id="stop4033"
         offset="1"
         style="stop-color:#0288d1;stop-opacity:1;" />
    </linearGradient>
  </defs>
  <sodipodi:namedview
     id="base"
     pagecolor="#ffffff"
     bordercolor="#666666"
     borderopacity="1.0"
     inkscape:pageopacity="0.0"
     inkscape:pageshadow="2"
     inkscape:zoom="11.313708"
     inkscape:cx="19.105758"
     inkscape:cy="23.499064"
     inkscape:document-units="px"
     inkscape:current-layer="layer1"
     showgrid="true"
     inkscape:snap-bbox="true"
     inkscape:window-width="1301"
     inkscape:window-height="744"
     inkscape:window-x="65"
     inkscape:window-y="24"
     inkscape:window-maximized="1"
     inkscape:snap-global="true"
     showguides="true"
     inkscape:guide-bbox="true">
    <inkscape:grid
       type="xygrid"
       id="grid2985"
       empspacing="6"
       visible="true"
       enabled="true"
       snapvisiblegridlinesonly="true" />
    <sodipodi:guide
       orientation="1,0"
       position="12,34"
       id="guide3766" />
    <sodipodi:guide
       orientation="1,0"
       position="36,26"
       id="guide3768" />
    <sodipodi:guide
       orientation="0,1"
       position="22,36"
       id="guide3770" />
    <sodipodi:guide
       orientation="0,1"
       position="23,12"
       id="guide3772" />
  </sodipodi:namedview>
  <metadata
     id="metadata7">
    <rdf:RDF>
      <cc:Work
         rdf:about="">
        <dc:format>image/svg+xml</dc:format>
        <dc:type
           rdf:resource="http://purl.org/dc/dcmitype/StillImage" />
        <dc:title />
      </cc:Work>
    </rdf:RDF>
  </metadata>
  <g
     inkscape:label="Layer 1"
     inkscape:groupmode="layer"
     id="layer1"
     transform="translate(0,-1004.3622)">
    <path
       style="opacity:0.1;fill:#000000;fill-opacity:1;stroke:none"
       d="m 25,1052.3622 c 7.7742,0 15,-2 18,-5 3,-3 5,-10.2258 5,-18 0,-7.7742 -2,-15 -5,-18 -0.1285,-0.1285 -0.2938,-0.2503 -0.4375,-0.375 2.6917,3.2942 4.4375,10.0867 4.4375,17.375 0,7.7742 -2,15 -5,18 -3,3 -10.2258,5 -18,5 -7.2883,0 -14.0808,-1.7458 -17.375,-4.4375 0.1247,0.1437 0.2465,0.309 0.375,0.4375 3,3 10.2258,5 18,5 z"
       id="path3779"
       inkscape:connector-curvature="0"
       inkscape:transform-center-x="-2.3125"
       inkscape:transform-center-y="2.3125" />
    <path
       inkscape:transform-center-y="2.2828743"
       inkscape:transform-center-x="-2.2828593"
       inkscape:connector-curvature="0"
       id="path3781"
       d="m 24.764476,1051.8319 c 7.674553,0 14.807735,-1.9744 17.769282,-4.9359 2.961547,-2.9616 4.935912,-10.0947 4.935912,-17.7693 0,-7.6746 -1.974365,-14.8078 -4.935912,-17.7693 -0.126853,-0.1269 -0.290034,-0.2471 -0.431892,-0.3702 2.657199,3.2519 4.380621,9.9574 4.380621,17.1523 0,7.6745 -1.974364,14.8078 -4.935911,17.7693 -2.961547,2.9615 -10.094729,4.9359 -17.769282,4.9359 -7.194882,0 -13.9003179,-1.7235 -17.152294,-4.3806 0.1231016,0.1418 0.2433405,0.305 0.3701934,0.4319 2.961547,2.9615 10.0947286,4.9359 17.7692826,4.9359 z"
       style="opacity:0.2;fill:#000000;fill-opacity:1;stroke:none" />
    <path
       style="fill:url(#linearGradient3771);fill-opacity:1;stroke:none"
       d="m 24,1051.3622 c 7.774167,0 15,-2 18,-5 3,-3 5,-10.2258 5,-18 0,-7.7742 -2,-15 -5,-18 -3,-3 -10.2258,-5 -18,-5 -7.7742,0 -15,2 -18,5 -3,3 -5,10.2258 -5,18 0,7.7742 2,15 5,18 3,3 10.225833,5 18,5 z"
       id="path3770"
       inkscape:connector-curvature="0"
       sodipodi:nodetypes="zzzzzzzzz" />
    <path
       style="opacity:0.1;fill:#ffffff;fill-opacity:1;stroke:none"
       d="M 24,1 C 16.225833,1 9,3 6,6 3,9 1,16.2258 1,24 1,31.7742 3,39 6,42 6.128453,42.128453 6.2938409,42.250292 6.4375,42.375 3.7458496,39.080756 2,32.288313 2,25 2,17.2258 4,10 7,7 10,4 17.225833,2 25,2 32.288282,2 39.080753,3.7458496 42.375,6.4375 42.250292,6.2938409 42.128453,6.128453 42,6 39,3 31.774167,1 24,1 z"
       id="path3000"
       inkscape:connector-curvature="0"
       inkscape:transform-center-x="2.3125"
       inkscape:transform-center-y="-2.3125"
       transform="translate(0,1004.3622)" />
    <path
       inkscape:transform-center-y="2.3125"
       inkscape:transform-center-x="-2.3125"
       inkscape:connector-curvature="0"
       id="path3777"
       d="m 24,1051.3622 c 7.7742,0 15,-2 18,-5 3,-3 5,-10.2258 5,-18 0,-7.7742 -2,-15 -5,-18 -0.1285,-0.1285 -0.2938,-0.2503 -0.4375,-0.375 2.6917,3.2942 4.4375,10.0867 4.4375,17.375 0,7.7742 -2,15 -5,18 -3,3 -10.2258,5 -18,5 -7.2883,0 -14.0808,-1.7458 -17.375,-4.4375 0.1247,0.1437 0.2465,0.309 0.375,0.4375 3,3 10.2258,5 18,5 z"
       style="opacity:0.10000000000000001;fill:#000000;fill-opacity:1;stroke:none" />
    <g
       id="g3032"
       transform="translate(-6,1005.3622)" />
    <g
       id="g3042"
       transform="translate(-103.875,1000.6422)" />
    <g
       id="g3038"
       transform="translate(-107.998,1001.3622)" />
    <g
       id="g3030"
       transform="translate(-102.909,1002.8852)" />
    <path
       style="fill:#000000;fill-opacity:1;stroke:none;opacity:0.1"
       d="M 35.8125 13.1875 C 35.924027 13.437121 36 13.708003 36 14 L 36 34 C 36 35.108 35.108 36 34 36 L 14 36 C 13.708003 36 13.437121 35.924027 13.1875 35.8125 C 13.49917 36.510083 14.183997 37 15 37 L 35 37 C 36.108 37 37 36.108 37 35 L 37 15 C 37 14.183997 36.510083 13.49917 35.8125 13.1875 z M 14 14 L 14 34 L 15 34 L 15 15 L 34 15 L 34 14 L 14 14 z M 32 17 L 32 32 L 17 32 L 17 33 L 33 33 L 33 17 L 32 17 z M 20 25 L 20 26 L 21 26 L 28 26 L 28 25 L 20 25 z M 20 27 L 20 28 L 21 28 L 28 28 L 28 27 L 21 27 L 20 27 z M 20 29 L 20 30 L 21 30 L 28 30 L 28 29 L 21 29 L 20 29 z "
       transform="translate(0,1004.3622)"
       id="path3786" />
    <path
       style="opacity:1;fill:#ffffff;fill-opacity:1;stroke:none"
       d="M 14 12 C 12.892 12 12 12.892 12 14 L 12 34 C 12 35.108 12.892 36 14 36 L 34 36 C 35.108 36 36 35.108 36 34 L 36 14 C 36 12.892 35.108 12 34 12 L 14 12 z M 14 14 L 34 14 L 34 34 L 14 34 L 14 14 z M 16 16 L 16 32 L 32 32 L 32 16 L 16 16 z M 19 18 L 19.90625 18 L 19.90625 21.25 L 21.96875 21.25 L 21.96875 22 L 19 22 L 19 18 z M 22.40625 18 L 23.25 18 L 23.25 18.65625 L 22.40625 18.65625 L 22.40625 18 z M 24.125 18.25 L 24.9375 18.25 L 24.9375 19.09375 L 25.5625 19.09375 L 25.5625 19.625 L 24.9375 19.625 L 24.9375 21.0625 C 24.937499 21.196955 24.98442 21.298932 25.03125 21.34375 C 25.078077 21.388569 25.172011 21.406251 25.3125 21.40625 C 25.406156 21.406251 25.48445 21.38994 25.5625 21.375 L 25.5625 22 C 25.492255 22.011205 25.398351 22.027515 25.3125 22.03125 C 25.226645 22.034985 25.144449 22.03125 25.0625 22.03125 C 24.933719 22.03125 24.835821 22.018674 24.71875 22 C 24.605579 21.985061 24.496005 21.954803 24.40625 21.90625 C 24.320396 21.853962 24.238231 21.777137 24.1875 21.6875 C 24.136768 21.597864 24.124999 21.48941 24.125 21.34375 L 24.125 19.625 L 23.625 19.625 L 23.625 19.09375 L 24.125 19.09375 L 24.125 18.25 z M 27.34375 19.03125 C 27.601307 19.031253 27.840029 19.059147 28.03125 19.15625 C 28.222466 19.249624 28.379022 19.401904 28.5 19.5625 C 28.624874 19.723101 28.695363 19.888335 28.75 20.09375 C 28.804631 20.299169 28.828106 20.52591 28.8125 20.75 L 26.625 20.75 C 26.636706 21.003971 26.718872 21.192986 26.84375 21.3125 C 26.968626 21.428281 27.140854 21.468751 27.375 21.46875 C 27.542802 21.468751 27.691523 21.453432 27.8125 21.375 C 27.933473 21.292834 28.003931 21.183387 28.03125 21.09375 L 28.78125 21.09375 C 28.664175 21.437357 28.460697 21.690621 28.21875 21.84375 C 27.976798 21.996879 27.68716 22.09375 27.34375 22.09375 C 27.105701 22.09375 26.909967 22.043447 26.71875 21.96875 C 26.527531 21.894053 26.351431 21.790705 26.21875 21.65625 C 26.086067 21.521796 25.980396 21.342993 25.90625 21.15625 C 25.836006 20.969508 25.8125 20.786592 25.8125 20.5625 C 25.8125 20.34588 25.832104 20.124244 25.90625 19.9375 C 25.980396 19.75076 26.113415 19.603207 26.25 19.46875 C 26.386584 19.330563 26.531433 19.234685 26.71875 19.15625 C 26.909967 19.077821 27.113506 19.031253 27.34375 19.03125 z M 22.40625 19.09375 L 23.25 19.09375 L 23.25 22 L 22.40625 22 L 22.40625 19.09375 z M 27.34375 19.625 C 27.211066 19.625002 27.089754 19.642684 27 19.6875 C 26.914146 19.728586 26.835883 19.78026 26.78125 19.84375 C 26.730518 19.907245 26.710913 19.99154 26.6875 20.0625 C 26.667987 20.133464 26.628901 20.193979 26.625 20.25 L 28 20.25 C 27.960974 20.04832 27.882711 19.885828 27.78125 19.78125 C 27.683688 19.676676 27.546674 19.625002 27.34375 19.625 z M 20 25 L 28 25 L 28 26 L 20 26 L 20 25 z M 20 27 L 28 27 L 28 28 L 20 28 L 20 27 z M 20 29 L 28 29 L 28 30 L 20 30 L 20 29 z "
       transform="translate(0,1004.3622)"
       id="rect3770" />
  </g>
</svg>
