<?xml version="1.0" encoding="UTF-8" standalone="no"?>
<!-- Created with Inkscape (http://www.inkscape.org/) -->

<svg
   xmlns:dc="http://purl.org/dc/elements/1.1/"
   xmlns:cc="http://creativecommons.org/ns#"
   xmlns:rdf="http://www.w3.org/1999/02/22-rdf-syntax-ns#"
   xmlns:svg="http://www.w3.org/2000/svg"
   xmlns="http://www.w3.org/2000/svg"
   xmlns:xlink="http://www.w3.org/1999/xlink"
   xmlns:sodipodi="http://sodipodi.sourceforge.net/DTD/sodipodi-0.dtd"
   xmlns:inkscape="http://www.inkscape.org/namespaces/inkscape"
   width="48"
   height="48"
   id="svg2"
   version="1.1"
   inkscape:version="0.48.4 r9939"
   sodipodi:docname="steam_icon_250420.svg">
  <defs
     id="defs4">
    <linearGradient
       id="linearGradient3788">
      <stop
         style="stop-color:#6200ea;stop-opacity:1;"
         offset="0"
         id="stop3790" />
      <stop
         style="stop-color:#7c4dff;stop-opacity:1;"
         offset="1"
         id="stop3792" />
    </linearGradient>
    <linearGradient
       inkscape:collect="always"
       xlink:href="#linearGradient3788"
       id="linearGradient3794"
       x1="43"
       y1="1047.3622"
       x2="5"
       y2="1009.3622"
       gradientUnits="userSpaceOnUse" />
  </defs>
  <sodipodi:namedview
     id="base"
     pagecolor="#ffffff"
     bordercolor="#666666"
     borderopacity="1.0"
     inkscape:pageopacity="0.0"
     inkscape:pageshadow="2"
     inkscape:zoom="11.854167"
     inkscape:cx="13.85826"
     inkscape:cy="17.729422"
     inkscape:document-units="px"
     inkscape:current-layer="layer1"
     showgrid="true"
     inkscape:snap-bbox="true"
     inkscape:window-width="1301"
     inkscape:window-height="744"
     inkscape:window-x="65"
     inkscape:window-y="24"
     inkscape:window-maximized="1"
     inkscape:snap-global="true">
    <inkscape:grid
       type="xygrid"
       id="grid2985"
       empspacing="6"
       visible="true"
       enabled="true"
       snapvisiblegridlinesonly="true" />
  </sodipodi:namedview>
  <metadata
     id="metadata7">
    <rdf:RDF>
      <cc:Work
         rdf:about="">
        <dc:format>image/svg+xml</dc:format>
        <dc:type
           rdf:resource="http://purl.org/dc/dcmitype/StillImage" />
        <dc:title />
      </cc:Work>
    </rdf:RDF>
  </metadata>
  <g
     inkscape:label="Layer 1"
     inkscape:groupmode="layer"
     id="layer1"
     transform="translate(0,-1004.3622)">
    <path
       sodipodi:nodetypes="zzzzzzzzz"
       inkscape:connector-curvature="0"
       id="path3776"
       d="m 24,1005.3622 c -7.774167,0 -15,2 -18,5 -3,3 -5,10.2258 -5,18 0,7.7742 2,15 5,18 3,3 10.2258,5 18,5 7.7742,0 15,-2 18,-5 3,-3 5,-10.2258 5,-18 0,-7.7742 -2,-15 -5,-18 -3,-3 -10.22583,-5 -18,-5 z"
       style="fill:url(#linearGradient3794);fill-opacity:1;stroke:none" />
    <path
       style="opacity:0.1;fill:#000000;fill-opacity:1;stroke:none"
       d="m 25,1052.3622 c 7.7742,0 15,-2 18,-5 3,-3 5,-10.2258 5,-18 0,-7.7742 -2,-15 -5,-18 -0.1285,-0.1285 -0.2938,-0.2503 -0.4375,-0.375 2.6917,3.2942 4.4375,10.0867 4.4375,17.375 0,7.7742 -2,15 -5,18 -3,3 -10.2258,5 -18,5 -7.2883,0 -14.0808,-1.7458 -17.375,-4.4375 0.1247,0.1437 0.2465,0.309 0.375,0.4375 3,3 10.2258,5 18,5 z"
       id="path3779"
       inkscape:connector-curvature="0"
       inkscape:transform-center-x="-2.3125"
       inkscape:transform-center-y="2.3125" />
    <path
       inkscape:transform-center-y="2.2828743"
       inkscape:transform-center-x="-2.2828593"
       inkscape:connector-curvature="0"
       id="path3781"
       d="m 24.764476,1051.8319 c 7.674553,0 14.807735,-1.9744 17.769282,-4.9359 2.961547,-2.9616 4.935912,-10.0947 4.935912,-17.7693 0,-7.6746 -1.974365,-14.8078 -4.935912,-17.7693 -0.126853,-0.1269 -0.290034,-0.2471 -0.431892,-0.3702 2.657199,3.2519 4.380621,9.9574 4.380621,17.1523 0,7.6745 -1.974364,14.8078 -4.935911,17.7693 -2.961547,2.9615 -10.094729,4.9359 -17.769282,4.9359 -7.194882,0 -13.9003179,-1.7235 -17.152294,-4.3806 0.1231016,0.1418 0.2433405,0.305 0.3701934,0.4319 2.961547,2.9615 10.0947286,4.9359 17.7692826,4.9359 z"
       style="opacity:0.2;fill:#000000;fill-opacity:1;stroke:none" />
    <path
       style="opacity:0.1;fill:#ffffff;fill-opacity:1;stroke:none"
       d="M 24,1 C 16.225833,1 9,3 6,6 3,9 1,16.2258 1,24 1,31.7742 3,39 6,42 6.128453,42.128453 6.2938409,42.250292 6.4375,42.375 3.7458496,39.080756 2,32.288313 2,25 2,17.2258 4,10 7,7 10,4 17.225833,2 25,2 32.288282,2 39.080753,3.7458496 42.375,6.4375 42.250292,6.2938409 42.128453,6.128453 42,6 39,3 31.774167,1 24,1 z"
       id="path3000"
       inkscape:connector-curvature="0"
       inkscape:transform-center-x="2.3125"
       inkscape:transform-center-y="-2.3125"
       transform="translate(0,1004.3622)" />
    <path
       inkscape:transform-center-y="2.3125"
       inkscape:transform-center-x="-2.3125"
       inkscape:connector-curvature="0"
       id="path3777"
       d="m 24,1051.3622 c 7.7742,0 15,-2 18,-5 3,-3 5,-10.2258 5,-18 0,-7.7742 -2,-15 -5,-18 -0.1285,-0.1285 -0.2938,-0.2503 -0.4375,-0.375 2.6917,3.2942 4.4375,10.0867 4.4375,17.375 0,7.7742 -2,15 -5,18 -3,3 -10.2258,5 -18,5 -7.2883,0 -14.0808,-1.7458 -17.375,-4.4375 0.1247,0.1437 0.2465,0.309 0.375,0.4375 3,3 10.2258,5 18,5 z"
       style="opacity:0.10000000000000001;fill:#000000;fill-opacity:1;stroke:none" />
    <path
       style="font-size:medium;font-style:normal;font-variant:normal;font-weight:normal;font-stretch:normal;text-indent:0;text-align:start;text-decoration:none;line-height:normal;letter-spacing:normal;word-spacing:normal;text-transform:none;direction:ltr;block-progression:tb;writing-mode:lr-tb;text-anchor:start;baseline-shift:baseline;opacity:0.2;color:#000000;fill:#000000;fill-opacity:1;stroke:none;stroke-width:4;marker:none;visibility:visible;display:inline;overflow:visible;enable-background:accumulate;font-family:Sans;-inkscape-font-specification:Sans"
       d="m 37,16 0,1 0,12 -3,0 0,1 4,0 0,-12 0,-2 z m -3,13 -1,0 0,1 0,3 -17,0 0,1 18,0 z m -19,-10 0,10 1,0 0,-9 17,0 0,-1 z m 0,10 -3,0 0,1 3,0 z"
       transform="translate(0,1004.3622)"
       id="path3778"
       inkscape:connector-curvature="0"
       sodipodi:nodetypes="ccccccccccccccccccccccccccccc" />
    <rect
       style="fill:#ffffff;fill-opacity:1;stroke:none"
       id="rect3768"
       width="18"
       height="9.9999657"
       x="15"
       y="1023.3622" />
    <path
       style="fill:none;stroke:#313131;stroke-width:4;stroke-linecap:butt;stroke-linejoin:miter;stroke-miterlimit:4;stroke-opacity:1;stroke-dasharray:none"
       d="m 13,29 0,-12 22,0 0,12"
       id="path3770"
       inkscape:connector-curvature="0"
       transform="translate(0,1004.3622)"
       sodipodi:nodetypes="cccc" />
    <path
       style="fill:none;stroke:#313131;stroke-width:4;stroke-linecap:butt;stroke-linejoin:miter;stroke-miterlimit:4;stroke-opacity:1;stroke-dasharray:none"
       d="m 15,31 18,0"
       id="path3772"
       inkscape:connector-curvature="0"
       transform="translate(0,1004.3622)"
       sodipodi:nodetypes="cc" />
    <rect
       style="fill:#000000;fill-opacity:1;stroke:none"
       id="rect3774"
       width="3"
       height="3"
       x="18"
       y="1025.3622" />
    <rect
       y="1025.3622"
       x="27"
       height="3"
       width="3"
       id="rect3776"
       style="fill:#000000;fill-opacity:1;stroke:none" />
  </g>
</svg>
