<?xml version="1.0" encoding="UTF-8" standalone="no"?>
<!-- Created with Inkscape (http://www.inkscape.org/) -->

<svg
   xmlns:dc="http://purl.org/dc/elements/1.1/"
   xmlns:cc="http://creativecommons.org/ns#"
   xmlns:rdf="http://www.w3.org/1999/02/22-rdf-syntax-ns#"
   xmlns:svg="http://www.w3.org/2000/svg"
   xmlns="http://www.w3.org/2000/svg"
   xmlns:xlink="http://www.w3.org/1999/xlink"
   xmlns:sodipodi="http://sodipodi.sourceforge.net/DTD/sodipodi-0.dtd"
   xmlns:inkscape="http://www.inkscape.org/namespaces/inkscape"
   width="48"
   height="48"
   id="svg2"
   version="1.1"
   inkscape:version="0.48.4 r9939"
   sodipodi:docname="steam_icon_211820.svg">
  <defs
     id="defs4">
    <linearGradient
       inkscape:collect="always"
       xlink:href="#linearGradient4029"
       id="linearGradient3771"
       x1="42"
       y1="42"
       x2="6"
       y2="6"
       gradientUnits="userSpaceOnUse"
       gradientTransform="matrix(-1,0,0,-1,48,1052.3622)"
       spreadMethod="pad" />
    <linearGradient
       id="linearGradient4029">
      <stop
         id="stop4031"
         offset="0"
         style="stop-color:#ffab40;stop-opacity:1;" />
      <stop
         id="stop4033"
         offset="1"
         style="stop-color:#ff9100;stop-opacity:1;" />
    </linearGradient>
    <linearGradient
       inkscape:collect="always"
       xlink:href="#linearGradient4029"
       id="linearGradient3851"
       gradientUnits="userSpaceOnUse"
       gradientTransform="matrix(-1,0,0,-1,48,1052.3622)"
       spreadMethod="pad"
       x1="42"
       y1="42"
       x2="6"
       y2="6" />
    <clipPath
       clipPathUnits="userSpaceOnUse"
       id="clipPath3819">
      <path
         sodipodi:nodetypes="zzzzzzzzz"
         inkscape:connector-curvature="0"
         id="path3821"
         d="m 24,1051.3622 c 7.774167,0 15,-2 18,-5 3,-3 5,-10.2258 5,-18 0,-7.7742 -2,-15 -5,-18 -3,-3 -10.2258,-5 -18,-5 -7.7742,0 -15,2 -18,5 -3,3 -5,10.2258 -5,18 0,7.7742 2,15 5,18 3,3 10.225833,5 18,5 z"
         style="fill:url(#linearGradient3823);fill-opacity:1;stroke:none" />
    </clipPath>
    <linearGradient
       inkscape:collect="always"
       xlink:href="#linearGradient4029"
       id="linearGradient3823"
       gradientUnits="userSpaceOnUse"
       gradientTransform="matrix(-1,0,0,-1,48,1052.3622)"
       spreadMethod="pad"
       x1="42"
       y1="42"
       x2="6"
       y2="6" />
  </defs>
  <sodipodi:namedview
     id="base"
     pagecolor="#ffffff"
     bordercolor="#666666"
     borderopacity="1.0"
     inkscape:pageopacity="0.0"
     inkscape:pageshadow="2"
     inkscape:zoom="11.313708"
     inkscape:cx="23.990384"
     inkscape:cy="19.807153"
     inkscape:document-units="px"
     inkscape:current-layer="layer1"
     showgrid="true"
     inkscape:snap-bbox="true"
     inkscape:window-width="1301"
     inkscape:window-height="744"
     inkscape:window-x="65"
     inkscape:window-y="24"
     inkscape:window-maximized="1"
     inkscape:snap-global="true"
     showguides="true"
     inkscape:guide-bbox="true">
    <inkscape:grid
       type="xygrid"
       id="grid2985"
       empspacing="6"
       visible="true"
       enabled="true"
       snapvisiblegridlinesonly="true" />
    <sodipodi:guide
       orientation="1,0"
       position="12,34"
       id="guide3766" />
    <sodipodi:guide
       orientation="1,0"
       position="36,26"
       id="guide3768" />
    <sodipodi:guide
       orientation="0,1"
       position="22,36"
       id="guide3770" />
    <sodipodi:guide
       orientation="0,1"
       position="23,12"
       id="guide3772" />
  </sodipodi:namedview>
  <metadata
     id="metadata7">
    <rdf:RDF>
      <cc:Work
         rdf:about="">
        <dc:format>image/svg+xml</dc:format>
        <dc:type
           rdf:resource="http://purl.org/dc/dcmitype/StillImage" />
        <dc:title />
      </cc:Work>
    </rdf:RDF>
  </metadata>
  <g
     inkscape:label="Layer 1"
     inkscape:groupmode="layer"
     id="layer1"
     transform="translate(0,-1004.3622)">
    <path
       style="opacity:0.1;fill:#000000;fill-opacity:1;stroke:none"
       d="m 25,1052.3622 c 7.7742,0 15,-2 18,-5 3,-3 5,-10.2258 5,-18 0,-7.7742 -2,-15 -5,-18 -0.1285,-0.1285 -0.2938,-0.2503 -0.4375,-0.375 2.6917,3.2942 4.4375,10.0867 4.4375,17.375 0,7.7742 -2,15 -5,18 -3,3 -10.2258,5 -18,5 -7.2883,0 -14.0808,-1.7458 -17.375,-4.4375 0.1247,0.1437 0.2465,0.309 0.375,0.4375 3,3 10.2258,5 18,5 z"
       id="path3779"
       inkscape:connector-curvature="0"
       inkscape:transform-center-x="-2.3125"
       inkscape:transform-center-y="2.3125" />
    <path
       inkscape:transform-center-y="2.2828743"
       inkscape:transform-center-x="-2.2828593"
       inkscape:connector-curvature="0"
       id="path3781"
       d="m 24.764476,1051.8319 c 7.674553,0 14.807735,-1.9744 17.769282,-4.9359 2.961547,-2.9616 4.935912,-10.0947 4.935912,-17.7693 0,-7.6746 -1.974365,-14.8078 -4.935912,-17.7693 -0.126853,-0.1269 -0.290034,-0.2471 -0.431892,-0.3702 2.657199,3.2519 4.380621,9.9574 4.380621,17.1523 0,7.6745 -1.974364,14.8078 -4.935911,17.7693 -2.961547,2.9615 -10.094729,4.9359 -17.769282,4.9359 -7.194882,0 -13.9003179,-1.7235 -17.152294,-4.3806 0.1231016,0.1418 0.2433405,0.305 0.3701934,0.4319 2.961547,2.9615 10.0947286,4.9359 17.7692826,4.9359 z"
       style="opacity:0.2;fill:#000000;fill-opacity:1;stroke:none" />
    <path
       style="fill:url(#linearGradient3771);fill-opacity:1;stroke:none"
       d="m 24,1051.3622 c 7.774167,0 15,-2 18,-5 3,-3 5,-10.2258 5,-18 0,-7.7742 -2,-15 -5,-18 -3,-3 -10.2258,-5 -18,-5 -7.7742,0 -15,2 -18,5 -3,3 -5,10.2258 -5,18 0,7.7742 2,15 5,18 3,3 10.225833,5 18,5 z"
       id="path3770"
       inkscape:connector-curvature="0"
       sodipodi:nodetypes="zzzzzzzzz" />
    <g
       id="g3032"
       transform="translate(-6,1005.3622)" />
    <g
       id="g3042"
       transform="translate(-103.875,1000.6422)" />
    <g
       id="g3038"
       transform="translate(-107.998,1001.3622)" />
    <g
       id="g3030"
       transform="translate(-102.909,1002.8852)" />
    <g
       id="g3813"
       clip-path="url(#clipPath3819)">
      <path
         style="fill:#000000;fill-opacity:1;stroke:none;opacity:0.1"
         d="m 1,1017.3622 c 13.9375,13.75 26.9375,26.75 34.4375,37.4688 0.645535,-0.04 1.797275,0 2.375,-0.062 0.956062,-0.097 1.622217,-0.3084 2.40625,-0.4688 -3.676786,-4.7253 -7.510889,-9.3396 -11.65625,-13.7187 0.192444,-0.6779 0.515431,-1.2967 1.03125,-1.8125 0.854272,-0.8543 2.002364,-1.2754 3.21875,-1.2813 0.699475,0 1.421734,0.1369 2.125,0.4063 0.05811,-0.1331 0.102874,-0.2708 0.15625,-0.4063 -1.870351,-0.8472 -3.15625,-2.477 -3.15625,-4.3755 0,-1.8985 1.285899,-3.5283 3.15625,-4.375 -0.05682,-0.1443 -0.09406,-0.296 -0.15625,-0.4375 -1.927566,0.7363 -3.996861,0.5031 -5.34375,-0.8437 -1.346889,-1.3469 -1.580054,-3.4162 -0.84375,-5.3438 -0.141469,-0.062 -0.293236,-0.099 -0.4375,-0.1562 -0.846696,1.8703 -2.476521,3.1562 -4.375,3.1562 -1.898479,0 -3.528304,-1.2859 -4.375,-3.1562 -0.144264,0.057 -0.296031,0.094 -0.4375,0.1562 0.736304,1.9276 0.503139,3.9969 -0.84375,5.3438 -0.629855,0.6298 -1.425351,1.0044 -2.28125,1.1562 -4.69489,-4.0281 -9.751213,-7.7402 -15,-11.25 z m 22.9375,9.75 c 3.313709,0 6,2.6863 6,6 0,2.3732 -1.377997,4.4025 -3.375,5.375 -2.607487,-2.6641 -5.324321,-5.2483 -8.125,-7.75 0.918003,-2.1337 3.027541,-3.625 5.5,-3.625 z"
         id="path3811"
         inkscape:connector-curvature="0"
         sodipodi:nodetypes="ccsccssccsccsccsccsccssccs" />
      <path
         sodipodi:nodetypes="ccsccssccsccsccsccsccssccs"
         inkscape:connector-curvature="0"
         id="path2997"
         d="m 0,1016.3622 c 13.9375,13.75 26.9375,26.75 34.4375,37.4688 0.645535,-0.04 1.797275,0 2.375,-0.062 0.956062,-0.097 1.622217,-0.3084 2.40625,-0.4688 -3.676786,-4.7253 -7.510889,-9.3396 -11.65625,-13.7187 0.192444,-0.6779 0.515431,-1.2967 1.03125,-1.8125 0.854272,-0.8543 2.002364,-1.2754 3.21875,-1.2813 0.699475,0 1.421734,0.1369 2.125,0.4063 0.05811,-0.1331 0.102874,-0.2708 0.15625,-0.4063 -1.870351,-0.8472 -3.15625,-2.477 -3.15625,-4.3755 0,-1.8985 1.285899,-3.5283 3.15625,-4.375 -0.05682,-0.1443 -0.09406,-0.296 -0.15625,-0.4375 -1.927566,0.7363 -3.996861,0.5031 -5.34375,-0.8437 -1.346889,-1.3469 -1.580054,-3.4162 -0.84375,-5.3438 -0.141469,-0.062 -0.293236,-0.099 -0.4375,-0.1562 -0.846696,1.8703 -2.476521,3.1562 -4.375,3.1562 -1.898479,0 -3.528304,-1.2859 -4.375,-3.1562 -0.144264,0.057 -0.296031,0.094 -0.4375,0.1562 0.736304,1.9276 0.503139,3.9969 -0.84375,5.3438 -0.629855,0.6298 -1.425351,1.0044 -2.28125,1.1562 -4.69489,-4.0281 -9.751213,-7.7402 -15,-11.25 z m 22.9375,9.75 c 3.313709,0 6,2.6863 6,6 0,2.3732 -1.377997,4.4025 -3.375,5.375 -2.607487,-2.6641 -5.324321,-5.2483 -8.125,-7.75 0.918003,-2.1337 3.027541,-3.625 5.5,-3.625 z"
         style="fill:#ffffff;fill-opacity:1;stroke:none" />
    </g>
    <path
       inkscape:transform-center-y="2.3125"
       inkscape:transform-center-x="-2.3125"
       inkscape:connector-curvature="0"
       id="path3777"
       d="m 24,1051.3622 c 7.7742,0 15,-2 18,-5 3,-3 5,-10.2258 5,-18 0,-7.7742 -2,-15 -5,-18 -0.1285,-0.1285 -0.2938,-0.2503 -0.4375,-0.375 2.6917,3.2942 4.4375,10.0867 4.4375,17.375 0,7.7742 -2,15 -5,18 -3,3 -10.2258,5 -18,5 -7.2883,0 -14.0808,-1.7458 -17.375,-4.4375 0.1247,0.1437 0.2465,0.309 0.375,0.4375 3,3 10.2258,5 18,5 z"
       style="opacity:0.10000000000000001;fill:#000000;fill-opacity:1;stroke:none" />
    <path
       style="opacity:0.1;fill:#ffffff;fill-opacity:1;stroke:none"
       d="M 24,1 C 16.225833,1 9,3 6,6 3,9 1,16.2258 1,24 1,31.7742 3,39 6,42 6.128453,42.128453 6.2938409,42.250292 6.4375,42.375 3.7458496,39.080756 2,32.288313 2,25 2,17.2258 4,10 7,7 10,4 17.225833,2 25,2 32.288282,2 39.080753,3.7458496 42.375,6.4375 42.250292,6.2938409 42.128453,6.128453 42,6 39,3 31.774167,1 24,1 z"
       id="path3000"
       inkscape:connector-curvature="0"
       inkscape:transform-center-x="2.3125"
       inkscape:transform-center-y="-2.3125"
       transform="translate(0,1004.3622)" />
  </g>
</svg>
