<?xml version="1.0" encoding="UTF-8" standalone="no"?>
<!-- Created with Inkscape (http://www.inkscape.org/) -->

<svg
   xmlns:dc="http://purl.org/dc/elements/1.1/"
   xmlns:cc="http://creativecommons.org/ns#"
   xmlns:rdf="http://www.w3.org/1999/02/22-rdf-syntax-ns#"
   xmlns:svg="http://www.w3.org/2000/svg"
   xmlns="http://www.w3.org/2000/svg"
   xmlns:xlink="http://www.w3.org/1999/xlink"
   xmlns:sodipodi="http://sodipodi.sourceforge.net/DTD/sodipodi-0.dtd"
   xmlns:inkscape="http://www.inkscape.org/namespaces/inkscape"
   width="48"
   height="48"
   id="svg2"
   version="1.1"
   inkscape:version="0.48.4 r9939"
   sodipodi:docname="unity-mail.svg">
  <defs
     id="defs4">
    <linearGradient
       inkscape:collect="always"
       xlink:href="#linearGradient4029"
       id="linearGradient3771"
       x1="42"
       y1="42"
       x2="6"
       y2="6"
       gradientUnits="userSpaceOnUse"
       gradientTransform="matrix(-1,0,0,-1,48,1052.3622)"
       spreadMethod="pad" />
    <linearGradient
       id="linearGradient4029">
      <stop
         id="stop4031"
         offset="0"
         style="stop-color:#e040fb;stop-opacity:1;" />
      <stop
         id="stop4033"
         offset="1"
         style="stop-color:#d500f9;stop-opacity:1;" />
    </linearGradient>
  </defs>
  <sodipodi:namedview
     id="base"
     pagecolor="#ffffff"
     bordercolor="#666666"
     borderopacity="1.0"
     inkscape:pageopacity="0.0"
     inkscape:pageshadow="2"
     inkscape:zoom="11.313708"
     inkscape:cx="11.590668"
     inkscape:cy="27.034598"
     inkscape:document-units="px"
     inkscape:current-layer="layer1"
     showgrid="true"
     inkscape:snap-bbox="true"
     inkscape:window-width="1301"
     inkscape:window-height="744"
     inkscape:window-x="65"
     inkscape:window-y="24"
     inkscape:window-maximized="1"
     inkscape:snap-global="true"
     showguides="true"
     inkscape:guide-bbox="true">
    <inkscape:grid
       type="xygrid"
       id="grid2985"
       empspacing="6"
       visible="true"
       enabled="true"
       snapvisiblegridlinesonly="true" />
    <sodipodi:guide
       orientation="1,0"
       position="12,34"
       id="guide3766" />
    <sodipodi:guide
       orientation="1,0"
       position="36,26"
       id="guide3768" />
    <sodipodi:guide
       orientation="0,1"
       position="22,36"
       id="guide3770" />
    <sodipodi:guide
       orientation="0,1"
       position="23,12"
       id="guide3772" />
  </sodipodi:namedview>
  <metadata
     id="metadata7">
    <rdf:RDF>
      <cc:Work
         rdf:about="">
        <dc:format>image/svg+xml</dc:format>
        <dc:type
           rdf:resource="http://purl.org/dc/dcmitype/StillImage" />
        <dc:title />
      </cc:Work>
    </rdf:RDF>
  </metadata>
  <g
     inkscape:label="Layer 1"
     inkscape:groupmode="layer"
     id="layer1"
     transform="translate(0,-1004.3622)">
    <path
       style="opacity:0.1;fill:#000000;fill-opacity:1;stroke:none"
       d="m 25,1052.3622 c 7.7742,0 15,-2 18,-5 3,-3 5,-10.2258 5,-18 0,-7.7742 -2,-15 -5,-18 -0.1285,-0.1285 -0.2938,-0.2503 -0.4375,-0.375 2.6917,3.2942 4.4375,10.0867 4.4375,17.375 0,7.7742 -2,15 -5,18 -3,3 -10.2258,5 -18,5 -7.2883,0 -14.0808,-1.7458 -17.375,-4.4375 0.1247,0.1437 0.2465,0.309 0.375,0.4375 3,3 10.2258,5 18,5 z"
       id="path3779"
       inkscape:connector-curvature="0"
       inkscape:transform-center-x="-2.3125"
       inkscape:transform-center-y="2.3125" />
    <path
       inkscape:transform-center-y="2.2828743"
       inkscape:transform-center-x="-2.2828593"
       inkscape:connector-curvature="0"
       id="path3781"
       d="m 24.764476,1051.8319 c 7.674553,0 14.807735,-1.9744 17.769282,-4.9359 2.961547,-2.9616 4.935912,-10.0947 4.935912,-17.7693 0,-7.6746 -1.974365,-14.8078 -4.935912,-17.7693 -0.126853,-0.1269 -0.290034,-0.2471 -0.431892,-0.3702 2.657199,3.2519 4.380621,9.9574 4.380621,17.1523 0,7.6745 -1.974364,14.8078 -4.935911,17.7693 -2.961547,2.9615 -10.094729,4.9359 -17.769282,4.9359 -7.194882,0 -13.9003179,-1.7235 -17.152294,-4.3806 0.1231016,0.1418 0.2433405,0.305 0.3701934,0.4319 2.961547,2.9615 10.0947286,4.9359 17.7692826,4.9359 z"
       style="opacity:0.2;fill:#000000;fill-opacity:1;stroke:none" />
    <path
       style="fill:url(#linearGradient3771);fill-opacity:1;stroke:none"
       d="m 24,1051.3622 c 7.774167,0 15,-2 18,-5 3,-3 5,-10.2258 5,-18 0,-7.7742 -2,-15 -5,-18 -3,-3 -10.2258,-5 -18,-5 -7.7742,0 -15,2 -18,5 -3,3 -5,10.2258 -5,18 0,7.7742 2,15 5,18 3,3 10.225833,5 18,5 z"
       id="path3770"
       inkscape:connector-curvature="0"
       sodipodi:nodetypes="zzzzzzzzz" />
    <path
       style="opacity:0.1;fill:#ffffff;fill-opacity:1;stroke:none"
       d="M 24,1 C 16.225833,1 9,3 6,6 3,9 1,16.2258 1,24 1,31.7742 3,39 6,42 6.128453,42.128453 6.2938409,42.250292 6.4375,42.375 3.7458496,39.080756 2,32.288313 2,25 2,17.2258 4,10 7,7 10,4 17.225833,2 25,2 32.288282,2 39.080753,3.7458496 42.375,6.4375 42.250292,6.2938409 42.128453,6.128453 42,6 39,3 31.774167,1 24,1 z"
       id="path3000"
       inkscape:connector-curvature="0"
       inkscape:transform-center-x="2.3125"
       inkscape:transform-center-y="-2.3125"
       transform="translate(0,1004.3622)" />
    <path
       inkscape:transform-center-y="2.3125"
       inkscape:transform-center-x="-2.3125"
       inkscape:connector-curvature="0"
       id="path3777"
       d="m 24,1051.3622 c 7.7742,0 15,-2 18,-5 3,-3 5,-10.2258 5,-18 0,-7.7742 -2,-15 -5,-18 -0.1285,-0.1285 -0.2938,-0.2503 -0.4375,-0.375 2.6917,3.2942 4.4375,10.0867 4.4375,17.375 0,7.7742 -2,15 -5,18 -3,3 -10.2258,5 -18,5 -7.2883,0 -14.0808,-1.7458 -17.375,-4.4375 0.1247,0.1437 0.2465,0.309 0.375,0.4375 3,3 10.2258,5 18,5 z"
       style="opacity:0.10000000000000001;fill:#000000;fill-opacity:1;stroke:none" />
    <g
       id="g3032"
       transform="translate(-6,1005.3622)" />
    <g
       id="g3042"
       transform="translate(-103.875,1000.6422)" />
    <g
       id="g3038"
       transform="translate(-107.998,1001.3622)" />
    <g
       id="g3030"
       transform="translate(-102.909,1002.8852)" />
    <path
       id="path3811"
       d="m 16,1020.3622 c -0.4155,0 -0.797094,0.099 -1.15625,0.25 -0.02136,0.01 -0.04139,0.023 -0.0625,0.031 -0.156295,0.07 -0.328183,0.1239 -0.46875,0.2187 -0.164187,0.102 -0.300609,0.2381 -0.4375,0.375 -0.54225,0.5422 -0.875,1.294 -0.875,2.125 l 0,12 c 0,1.662 1.338,3 3,3 l 18,0 c 1.662,0 3,-1.338 3,-3 l 0,-12 c 0,-0.831 -0.33275,-1.5828 -0.875,-2.125 -0.135724,-0.1357 -0.274891,-0.2736 -0.4375,-0.375 -0.129268,-0.087 -0.294839,-0.121 -0.4375,-0.1875 -0.168416,-0.079 -0.347369,-0.1411 -0.53125,-0.1875 -0.237108,-0.06 -0.462525,-0.125 -0.71875,-0.125 l -18,0 z m 3.25,3 11.53125,0 -5.78125,5 -5.75,-5 z m -3.25,1.125 9,8.125 9,-8.0937 0,10.8437 -18,0 0,-10.875 z"
       style="fill:#000000;fill-opacity:1;stroke:none;opacity:0.2"
       inkscape:connector-curvature="0" />
    <path
       style="fill:#ffffff;fill-opacity:1;stroke:none"
       d="M 15 15 C 14.5845 15 14.202906 15.098594 13.84375 15.25 C 13.82239 15.257914 13.802362 15.272882 13.78125 15.28125 C 13.624955 15.351474 13.453067 15.405191 13.3125 15.5 C 13.148313 15.601972 13.011891 15.738109 12.875 15.875 C 12.33275 16.41725 12 17.169 12 18 L 12 30 C 12 31.662 13.338 33 15 33 L 33 33 C 34.662 33 36 31.662 36 30 L 36 18 C 36 17.169 35.66725 16.41725 35.125 15.875 C 34.989276 15.739276 34.850109 15.601432 34.6875 15.5 C 34.558232 15.412812 34.392661 15.378988 34.25 15.3125 C 34.081584 15.234008 33.902631 15.171443 33.71875 15.125 C 33.481642 15.065114 33.256225 15 33 15 L 15 15 z M 18.25 18 L 29.78125 18 L 24 23 L 18.25 18 z M 15 19.125 L 24 27.25 L 33 19.15625 L 33 30 L 15 30 L 15 19.125 z "
       transform="translate(0,1004.3622)"
       id="rect3795" />
  </g>
</svg>
